<?xml version="1.0" encoding="utf-8"?>
<!-- Generator: Adobe Illustrator 26.0.3, SVG Export Plug-In . SVG Version: 6.00 Build 0)  -->
<svg version="1.1" id="Layer_1" xmlns="http://www.w3.org/2000/svg" xmlns:xlink="http://www.w3.org/1999/xlink" x="0px" y="0px"
	 viewBox="0 0 50 50" style="enable-background:new 0 0 50 50;" xml:space="preserve">
<style type="text/css">
	.st0{fill:#E0D6CC;}
	.st1{fill:none;stroke:#000000;stroke-width:2;stroke-linecap:round;stroke-linejoin:round;stroke-miterlimit:10;}
	.st2{fill:#FFFFFF;}
</style>
<rect class="st0" width="2" height="50"/>
<rect x="-4" y="34.7" transform="matrix(0.7071 -0.7071 0.7071 0.7071 -21.1014 20.382)" class="st0" width="36" height="2"/>
<rect y="48" class="st0" width="50" height="2"/>
<path class="st1" d="M34.8,42.5"/>
<path class="st1" d="M41.9,35.7"/>
<g>
	<path class="st2" d="M49.6,24.7v5.1H30.3c0.2-1.9,0.8-3.8,1.9-5.5c1-1.7,3.1-4,6.2-6.9c2.5-2.3,4-3.9,4.6-4.7
		c0.8-1.1,1.1-2.3,1.1-3.4c0-1.2-0.3-2.2-1-2.8c-0.7-0.7-1.6-1-2.7-1c-1.1,0-2.1,0.3-2.7,1c-0.7,0.7-1.1,1.8-1.2,3.4L31,9.5
		c0.3-3,1.3-5.2,3.1-6.5c1.7-1.3,3.9-2,6.4-2c2.8,0,5,0.8,6.7,2.3c1.6,1.5,2.4,3.4,2.4,5.7c0,1.3-0.2,2.5-0.7,3.7
		c-0.5,1.2-1.2,2.4-2.2,3.7c-0.7,0.8-1.9,2.1-3.6,3.7c-1.7,1.6-2.8,2.6-3.3,3.2c-0.5,0.5-0.8,1-1.1,1.5H49.6z"/>
</g>
</svg>
