<?xml version="1.0" encoding="utf-8"?>
<!-- Generator: Adobe Illustrator 26.0.3, SVG Export Plug-In . SVG Version: 6.00 Build 0)  -->
<svg version="1.1" id="Layer_1" xmlns="http://www.w3.org/2000/svg" xmlns:xlink="http://www.w3.org/1999/xlink" x="0px" y="0px"
	 viewBox="0 0 50 50" style="enable-background:new 0 0 50 50;" xml:space="preserve">
<style type="text/css">
	.st0{fill:#E0D6CC;}
	.st1{fill:none;stroke:#000000;stroke-width:2;stroke-linecap:round;stroke-linejoin:round;stroke-miterlimit:10;}
	.st2{fill:#FFFFFF;}
</style>
<rect class="st0" width="2" height="50"/>
<rect x="-4" y="34.7" transform="matrix(0.7071 -0.7071 0.7071 0.7071 -21.1014 20.382)" class="st0" width="36" height="2"/>
<rect y="48" class="st0" width="50" height="2"/>
<path class="st1" d="M34.8,42.5"/>
<path class="st1" d="M41.9,35.7"/>
<g>
	<path class="st2" d="M30.8,22.2l5.3-0.6c0.2,1.4,0.6,2.4,1.4,3.1c0.7,0.7,1.6,1.1,2.7,1.1c1.1,0,2.1-0.4,2.9-1.3
		c0.8-0.9,1.2-2,1.2-3.5c0-1.4-0.4-2.5-1.1-3.3c-0.7-0.8-1.6-1.2-2.7-1.2c-0.7,0-1.5,0.1-2.5,0.4l0.6-4.5c1.5,0,2.6-0.3,3.4-1
		s1.2-1.6,1.2-2.7c0-1-0.3-1.7-0.9-2.3c-0.6-0.6-1.3-0.9-2.3-0.9c-0.9,0-1.7,0.3-2.4,1c-0.7,0.7-1.1,1.6-1.2,2.9l-5.1-0.9
		c0.4-1.7,0.9-3.1,1.6-4.2c0.7-1,1.7-1.8,3-2.4c1.3-0.6,2.7-0.9,4.3-0.9c2.7,0,4.9,0.9,6.5,2.6c1.3,1.4,2,3,2,4.8
		c0,2.5-1.4,4.5-4.1,6c1.6,0.4,3,1.1,3.9,2.4c1,1.2,1.5,2.7,1.5,4.4c0,2.5-0.9,4.7-2.8,6.4s-4.1,2.7-6.9,2.7c-2.6,0-4.7-0.7-6.4-2.2
		C32.1,26.6,31.1,24.6,30.8,22.2z"/>
</g>
</svg>
