<?xml version="1.0" encoding="utf-8"?>
<!-- Generator: Adobe Illustrator 26.0.3, SVG Export Plug-In . SVG Version: 6.00 Build 0)  -->
<svg version="1.1" id="Layer_1" xmlns="http://www.w3.org/2000/svg" xmlns:xlink="http://www.w3.org/1999/xlink" x="0px" y="0px"
	 viewBox="0 0 50 50" style="enable-background:new 0 0 50 50;" xml:space="preserve">
<style type="text/css">
	.st0{fill:#E0D6CC;}
	.st1{fill:none;stroke:#000000;stroke-width:2;stroke-linecap:round;stroke-linejoin:round;stroke-miterlimit:10;}
	.st2{fill:#FFFFFF;}
</style>
<rect class="st0" width="2" height="50"/>
<rect x="-4" y="34.7" transform="matrix(0.7071 -0.7071 0.7071 0.7071 -21.1014 20.382)" class="st0" width="36" height="2"/>
<rect y="48" class="st0" width="50" height="2"/>
<path class="st1" d="M34.8,42.5"/>
<path class="st1" d="M41.9,35.7"/>
<g>
	<path class="st2" d="M49,8.2l-5.3,0.6c-0.1-1.1-0.5-1.9-1-2.4c-0.5-0.5-1.3-0.8-2.1-0.8c-1.2,0-2.1,0.5-2.9,1.6
		c-0.8,1-1.3,3.2-1.5,6.5c1.4-1.6,3.1-2.4,5.1-2.4c2.3,0,4.3,0.9,5.9,2.6c1.6,1.7,2.5,4,2.5,6.8c0,2.9-0.9,5.3-2.6,7.1
		s-3.9,2.7-6.6,2.7c-2.9,0-5.3-1.1-7.1-3.4s-2.8-5.9-2.8-11c0-5.2,1-9,2.9-11.3c1.9-2.3,4.5-3.5,7.6-3.5c2.2,0,4,0.6,5.4,1.8
		C47.7,4.1,48.6,5.9,49,8.2z M36.5,20.2c0,1.8,0.4,3.2,1.2,4.1c0.8,1,1.8,1.5,2.8,1.5c1,0,1.9-0.4,2.5-1.2c0.7-0.8,1-2.1,1-3.9
		c0-1.9-0.4-3.2-1.1-4.1c-0.7-0.9-1.6-1.3-2.7-1.3c-1.1,0-1.9,0.4-2.7,1.2C36.9,17.3,36.5,18.5,36.5,20.2z"/>
</g>
</svg>
