<?xml version="1.0" encoding="utf-8"?>
<!-- Generator: Adobe Illustrator 26.0.3, SVG Export Plug-In . SVG Version: 6.00 Build 0)  -->
<svg version="1.1" id="Layer_1" xmlns="http://www.w3.org/2000/svg" xmlns:xlink="http://www.w3.org/1999/xlink" x="0px" y="0px"
	 viewBox="0 0 50 50" style="enable-background:new 0 0 50 50;" xml:space="preserve">
<style type="text/css">
	.st0{fill:#E0D6CC;}
	.st1{fill:none;stroke:#000000;stroke-width:2;stroke-linecap:round;stroke-linejoin:round;stroke-miterlimit:10;}
	.st2{fill:#FFFFFF;}
</style>
<rect class="st0" width="2" height="50"/>
<rect x="-4" y="34.7" transform="matrix(0.7071 -0.7071 0.7071 0.7071 -21.1014 20.382)" class="st0" width="36" height="2"/>
<rect y="48" class="st0" width="50" height="2"/>
<path class="st1" d="M34.8,42.5"/>
<path class="st1" d="M41.9,35.7"/>
<g>
	<path class="st2" d="M35.1,14.4c-1.4-0.6-2.5-1.4-3.1-2.5c-0.6-1-1-2.2-1-3.4c0-2.1,0.7-3.9,2.2-5.3c1.5-1.4,3.6-2.1,6.4-2.1
		c2.7,0,4.8,0.7,6.3,2.1c1.5,1.4,2.3,3.2,2.3,5.3c0,1.3-0.3,2.5-1,3.5s-1.7,1.8-2.9,2.4c1.6,0.6,2.8,1.6,3.6,2.8
		c0.8,1.2,1.2,2.6,1.2,4.2c0,2.6-0.8,4.8-2.5,6.4s-3.9,2.5-6.7,2.5c-2.6,0-4.8-0.7-6.5-2.1c-2-1.6-3.1-3.8-3.1-6.6
		c0-1.5,0.4-3,1.2-4.3C32.2,16.1,33.4,15.1,35.1,14.4z M35.7,21.1c0,1.5,0.4,2.7,1.2,3.5c0.8,0.8,1.7,1.3,2.9,1.3
		c1.1,0,2.1-0.4,2.8-1.2c0.7-0.8,1.1-2,1.1-3.5c0-1.3-0.4-2.4-1.1-3.2c-0.8-0.8-1.7-1.2-2.9-1.2c-1.3,0-2.3,0.5-3,1.4
		C36,19,35.7,20,35.7,21.1z M36.2,8.8c0,1.1,0.3,1.9,0.9,2.6c0.6,0.6,1.4,0.9,2.5,0.9c1,0,1.9-0.3,2.5-0.9c0.6-0.6,0.9-1.5,0.9-2.6
		c0-1-0.3-1.9-0.9-2.5c-0.6-0.6-1.4-0.9-2.5-0.9c-1.1,0-1.9,0.3-2.5,0.9S36.2,7.8,36.2,8.8z"/>
</g>
</svg>
