<?xml version="1.0" encoding="utf-8"?>
<!-- Generator: Adobe Illustrator 26.0.3, SVG Export Plug-In . SVG Version: 6.00 Build 0)  -->
<svg version="1.1" id="Layer_1" xmlns="http://www.w3.org/2000/svg" xmlns:xlink="http://www.w3.org/1999/xlink" x="0px" y="0px"
	 viewBox="0 0 50 50" style="enable-background:new 0 0 50 50;" xml:space="preserve">
<style type="text/css">
	.st0{fill:#E0D6CC;}
	.st1{fill:none;stroke:#000000;stroke-width:2;stroke-linecap:round;stroke-linejoin:round;stroke-miterlimit:10;}
	.st2{fill:#FFFFFF;}
</style>
<rect class="st0" width="2" height="50"/>
<rect x="-4" y="34.7" transform="matrix(0.7071 -0.7071 0.7071 0.7071 -21.1014 20.382)" class="st0" width="36" height="2"/>
<rect y="48" class="st0" width="50" height="2"/>
<path class="st1" d="M23.5,38.6"/>
<path class="st1" d="M36.4,25.9"/>
<rect x="39.5" y="2.4" transform="matrix(0.9222 0.3867 -0.3867 0.9222 5.0528 -16.8169)" class="st2" width="9.6" height="3.5"/>
<rect x="38" y="6.8" transform="matrix(0.9222 0.3867 -0.3867 0.9222 6.3306 -15.951)" class="st2" width="9.6" height="2"/>
<polygon class="st2" points="32.7,31.9 30.6,24.5 39.5,28.2 "/>
<rect x="31.1" y="23.1" transform="matrix(0.9222 0.3867 -0.3867 0.9222 12.1248 -12.0248)" class="st2" width="9.6" height="2"/>
<rect x="27.3" y="12.5" transform="matrix(0.3867 -0.9222 0.9222 0.3867 9.7095 41.6598)" class="st2" width="17.7" height="2"/>
<rect x="34" y="16.6" transform="matrix(0.3867 -0.9222 0.9222 0.3867 10.1218 50.2963)" class="st2" width="17.7" height="2"/>
<rect x="30.3" y="15.6" transform="matrix(0.3867 -0.9222 0.9222 0.3867 8.7421 46.2313)" class="st2" width="17.7" height="2"/>
</svg>
