<?xml version="1.0" encoding="utf-8"?>
<!-- Generator: Adobe Illustrator 26.0.3, SVG Export Plug-In . SVG Version: 6.00 Build 0)  -->
<svg version="1.1" id="Layer_1" xmlns="http://www.w3.org/2000/svg" xmlns:xlink="http://www.w3.org/1999/xlink" x="0px" y="0px"
	 viewBox="0 0 50 50" style="enable-background:new 0 0 50 50;" xml:space="preserve">
<style type="text/css">
	.st0{fill:#E0D6CC;}
	.st1{fill:#FFFFFF;stroke:#000000;stroke-miterlimit:10;}
	.st2{fill:#FFFFFF;}
</style>
<path class="st0" d="M29.7,48.8h-9.4c-0.6,0-1-0.4-1-1V13.3c0-0.6,0.4-1,1-1h9.4c0.6,0,1,0.4,1,1v34.5
	C30.7,48.4,30.3,48.8,29.7,48.8z M21.3,46.8h7.4V14.3h-7.4V46.8z"/>
<path class="st0" d="M20.3,46.5c-0.4,0-0.8-0.2-0.9-0.6c-0.2-0.5,0-1.1,0.5-1.3l9.4-4c0.5-0.2,1.1,0,1.3,0.5c0.2,0.5,0,1.1-0.5,1.3
	l-9.4,4C20.6,46.5,20.4,46.5,20.3,46.5z"/>
<path class="st0" d="M20.3,41.5c-0.4,0-0.8-0.2-0.9-0.6c-0.2-0.5,0-1.1,0.5-1.3l9.4-3.9c0.5-0.2,1.1,0,1.3,0.5
	c0.2,0.5,0,1.1-0.5,1.3l-9.4,3.9C20.6,41.5,20.4,41.5,20.3,41.5z"/>
<path class="st0" d="M20.3,36.3c-0.4,0-0.8-0.2-0.9-0.6c-0.2-0.5,0-1.1,0.5-1.3l9.4-4c0.5-0.2,1.1,0,1.3,0.5c0.2,0.5,0,1.1-0.5,1.3
	l-9.4,4C20.6,36.3,20.4,36.3,20.3,36.3z"/>
<path class="st0" d="M20.3,31.1c-0.4,0-0.8-0.2-0.9-0.6c-0.2-0.5,0-1.1,0.5-1.3l9.4-4c0.5-0.2,1.1,0,1.3,0.5c0.2,0.5,0,1.1-0.5,1.3
	l-9.4,4C20.6,31.1,20.4,31.1,20.3,31.1z"/>
<path class="st0" d="M35,14H15c-0.3,0-0.5-0.1-0.7-0.3l-5-5C9.1,8.5,9,8.3,9,8V2c0-0.6,0.4-1,1-1h30c0.6,0,1,0.4,1,1v6
	c0,0.3-0.1,0.5-0.3,0.7l-5,5C35.5,13.9,35.3,14,35,14z M15.4,12h19.2L39,7.6V3H11v4.6L15.4,12z"/>
<path class="st1" d="M1.1,43.9"/>
<path class="st2" d="M0.7,48.8v-4.7c0-0.3,0.2-0.5,0.5-0.5h16.6c0.3,0,0.5,0.2,0.5,0.5v4.7c0,0.3-0.2,0.5-0.5,0.5H1.2
	C0.9,49.3,0.7,49.1,0.7,48.8z M1.7,44.6v3.7h15.7v-3.7H1.7z"/>
<path class="st2" d="M31.5,48.8v-4.7c0-0.3,0.2-0.5,0.5-0.5h16.6c0.3,0,0.5,0.2,0.5,0.5v4.7c0,0.3-0.2,0.5-0.5,0.5H31.9
	C31.6,49.3,31.5,49.1,31.5,48.8z M32.4,44.6v3.7h15.7v-3.7H32.4z"/>
<rect x="7.8" y="17.1" class="st2" width="3.5" height="20.7"/>
<polygon class="st2" points="9.6,42.7 0.8,33.3 18.3,33.3 "/>
<rect x="38.5" y="17.1" class="st2" width="3.5" height="20.7"/>
<polygon class="st2" points="40.3,42.7 31.5,33.3 49,33.3 "/>
</svg>
