<?xml version="1.0" encoding="utf-8"?><svg version="1.1" id="Layer_1" xmlns="http://www.w3.org/2000/svg" xmlns:xlink="http://www.w3.org/1999/xlink" x="0px" y="0px" viewBox="0 0 87.91 122.88" style="enable-background:new 0 0 87.91 122.88" xml:space="preserve"><style type="text/css">.st0{fill-rule:evenodd;clip-rule:evenodd;}</style><g><path class="st0" d="M58.72,0h11.7c0.69,0,1.25,0.56,1.25,1.25v6.32h13.52c1.49,0,2.72,1.22,2.72,2.72v5.25 c0,1.49-1.22,2.72-2.72,2.72H71.67v11.55h6.1c1.76,0,3.19,1.44,3.19,3.19v26.67c0,1.76-1.44,3.19-3.19,3.19h-6.1v7.28h5.41 c1.01,0,1.92,0.41,2.58,1.07c0.08,0.08,0.14,0.15,0.21,0.24c0.54,0.64,0.86,1.46,0.86,2.35v9.52c0,1.01-0.41,1.92-1.07,2.58 c-0.66,0.66-1.57,1.07-2.58,1.07H52.88c-1,0-1.91-0.41-2.57-1.07l0,0l-0.01,0c-0.66-0.66-1.07-1.57-1.07-2.58V73.8 c0-1,0.41-1.91,1.07-2.57l0.01-0.01c0.66-0.66,1.57-1.07,2.57-1.07h4.59v-7.28h-6.79c-1.76,0-3.19-1.44-3.19-3.19v-7.14H17.4 c-1.25,0-2.27,1.02-2.27,2.27v49.62c0,1.25,1.02,2.27,2.27,2.27h34.81v-5.88c0-0.54,0.45-0.99,0.99-0.99h23.74 c0.55,0,0.99,0.45,0.99,0.99v5.88v1.82v0.22c0,0.03,0,0.06,0,0.09c-0.16,7.76-6.57,14.07-14.37,14.07H14.37 c-7.9,0-14.37-6.47-14.37-14.37V50.56c0-7.9,6.47-14.37,14.37-14.37h33.11V33c0-1.76,1.44-3.19,3.19-3.19h6.79V18.26h-12.7 c-1.49,0-2.72-1.22-2.72-2.72v-5.25c0-1.49,1.22-2.72,2.72-2.72h12.7V1.25C57.47,0.56,58.03,0,58.72,0L58.72,0z M75.8,75.08H54.16 v6.97H75.8V75.08L75.8,75.08z"/></g></svg>