<?xml version="1.0" encoding="utf-8"?>
<!-- Generator: Adobe Illustrator 26.0.3, SVG Export Plug-In . SVG Version: 6.00 Build 0)  -->
<svg version="1.1" id="Ebene_1" xmlns="http://www.w3.org/2000/svg" xmlns:xlink="http://www.w3.org/1999/xlink" x="0px" y="0px"
	 viewBox="0 0 110 87.2" style="enable-background:new 0 0 110 87.2;" xml:space="preserve">
<style type="text/css">
	.st0{fill:#444444;}
</style>
<path class="st0" d="M86.4,4.6c-4.5,2-11.4,5.8-19.2,10.3L29.6,9.6c-0.6-0.1-1.4-0.2-2.1-0.2c-1.5,0-2.8,0.2-4.2,0.6l-8.1,2.3
	c-0.7,0-0.7,0.7,0,1l31.3,13.7c-10.6,6.3-20,12.1-24.1,14.7c-0.9,0.6-2,0.9-3.1,0.9c-0.6,0-1.3-0.1-1.8-0.3l-8.2-2.6
	c-0.6-0.2-1.3-0.3-2-0.3s-1.4,0.1-2,0.4L0,41.9l17.3,14.4c1,0.9,2.4,1.4,3.9,1.4c0.9,0,1.7-0.2,2.5-0.5C32,53.6,53.8,43.5,70,35.1
	c36-19.1,40-22.4,40-25.4C110,4.9,96.2,0,86.4,4.6L86.4,4.6z"/>
<path class="st0" d="M0,78.4h110v6.9H0V78.4z"/>
</svg>
