<?xml version="1.0" encoding="utf-8"?>
<!-- Generator: Adobe Illustrator 26.0.3, SVG Export Plug-In . SVG Version: 6.00 Build 0)  -->
<svg version="1.1" id="Layer_1" xmlns="http://www.w3.org/2000/svg" xmlns:xlink="http://www.w3.org/1999/xlink" x="0px" y="0px"
	 viewBox="0 0 50 50" style="enable-background:new 0 0 50 50;" xml:space="preserve">
<style type="text/css">
	.st0{fill:none;stroke:#000000;stroke-width:3;stroke-miterlimit:10;}
</style>
<path d="M13.9,14.3L13.9,14.3h-3.3c-0.1,0-0.2,0-0.2,0c-0.1,0-0.3-0.1-0.4-0.2c-0.1-0.1-0.2-0.2-0.3-0.3c0-0.1-0.1-0.1-0.1-0.2
	L7.9,7.1H6.8c-0.6,0-1-0.4-1-1V1.7c0-0.6,0.4-1,1-1h10.9c0.6,0,1,0.4,1,1V6c0,0.6-0.4,1-1,1h-0.8l-2.1,6.5c0,0.1,0,0.1-0.1,0.2
	c-0.1,0.1-0.2,0.2-0.3,0.3C14.3,14.1,14.1,14.2,13.9,14.3C14,14.3,14,14.3,13.9,14.3z M11.4,12.3h1.8l1.7-5.2h-4.8L11.4,12.3z
	 M16.4,5.1h0.3V2.7H7.8V5h0.7c0.1,0,0.2,0,0.4,0h7.2C16.1,5,16.2,5,16.4,5.1z"/>
<path d="M12.4,49.3C6,49.3,0.7,44.1,0.7,37.6c0-7.4,10.5-20.2,10.9-20.7c0.4-0.5,1.2-0.5,1.5,0C13.5,17.4,24,30.2,24,37.6
	C24.1,44.2,18.8,49.3,12.4,49.3z M12.4,19.2C10,22.4,2.7,32.2,2.7,37.8c0,5.3,4.3,9.7,9.7,9.7c5.3,0,9.7-4.3,9.7-9.7
	C22.1,32,14.8,22.4,12.4,19.2z"/>
<path d="M11.7,45.8h-0.1c-2.3-0.3-6.7-2.5-6.7-8.3c0-5.2,6.2-13.2,6.4-13.5c0.3-0.4,1-0.5,1.4-0.2s0.5,1,0.2,1.4
	c-0.1,0.1-6,7.8-6,12.3c0,5.4,4.8,6.2,5,6.3c0.5,0.1,0.9,0.6,0.8,1.1C12.6,45.5,12.1,45.8,11.7,45.8z"/>
<path d="M39.8,3.3l0.2,0c3.4,1.3,9.4,6.2,7.3,15c-1.8,8-14.1,18-14.5,18.4c-0.6,0.5-1.7,0.4-2.2-0.2c-0.5-0.6-0.4-1.7,0.2-2.2
	c0.2-0.1,11.9-9.8,13.5-16.7c1.9-8.3-5.2-11.2-5.4-11.4c-0.7-0.3-1.2-1.2-0.8-2C38.3,3.5,39.2,3.1,39.8,3.3z"/>
<polyline class="st0" points="33,23.4 30.9,35.7 43.9,36.6 "/>
</svg>
