<svg xmlns="http://www.w3.org/2000/svg" xmlns:xlink="http://www.w3.org/1999/xlink" viewBox="0 0 50 50" version="1.1" width="50" height="50" style="fill: rgb(0, 0, 0);">
<g id="surface1">
<path style=" " d="M 0.8125 0 C 0.78125 0.0078125 0.75 0.0195313 0.71875 0.03125 C 0.6875 0.0390625 0.65625 0.0507813 0.625 0.0625 C 0.59375 0.0703125 0.5625 0.0820313 0.53125 0.09375 C 0.519531 0.105469 0.511719 0.113281 0.5 0.125 C 0.480469 0.132813 0.457031 0.144531 0.4375 0.15625 C 0.425781 0.167969 0.417969 0.175781 0.40625 0.1875 C 0.386719 0.195313 0.363281 0.207031 0.34375 0.21875 C 0.34375 0.230469 0.34375 0.238281 0.34375 0.25 C 0.324219 0.257813 0.300781 0.269531 0.28125 0.28125 C 0.269531 0.292969 0.261719 0.300781 0.25 0.3125 C 0.238281 0.324219 0.230469 0.332031 0.21875 0.34375 C 0.207031 0.363281 0.195313 0.386719 0.1875 0.40625 C 0.175781 0.417969 0.167969 0.425781 0.15625 0.4375 C 0.15625 0.449219 0.15625 0.457031 0.15625 0.46875 C 0.132813 0.488281 0.113281 0.507813 0.09375 0.53125 C 0.09375 0.542969 0.09375 0.550781 0.09375 0.5625 C 0.0820313 0.574219 0.0742188 0.582031 0.0625 0.59375 C 0.0625 0.613281 0.0625 0.636719 0.0625 0.65625 C 0.0507813 0.667969 0.0429688 0.675781 0.03125 0.6875 C 0.03125 0.707031 0.03125 0.730469 0.03125 0.75 C 0.0195313 0.761719 0.0117188 0.769531 0 0.78125 C 0 0.800781 0 0.824219 0 0.84375 C -0.0195313 0.957031 -0.0195313 1.074219 0 1.1875 L 0 35 C 0 35.242188 0.0898438 35.476563 0.25 35.65625 L 12.1875 49.5625 L 12.25 49.65625 C 12.269531 49.679688 12.289063 49.699219 12.3125 49.71875 C 12.332031 49.742188 12.351563 49.761719 12.375 49.78125 C 12.40625 49.804688 12.4375 49.824219 12.46875 49.84375 C 12.488281 49.867188 12.507813 49.886719 12.53125 49.90625 C 12.542969 49.90625 12.550781 49.90625 12.5625 49.90625 C 12.582031 49.917969 12.605469 49.929688 12.625 49.9375 C 12.636719 49.9375 12.644531 49.9375 12.65625 49.9375 C 12.675781 49.949219 12.699219 49.960938 12.71875 49.96875 C 12.730469 49.96875 12.738281 49.96875 12.75 49.96875 C 12.8125 49.984375 12.875 49.996094 12.9375 50 C 12.980469 50.003906 13.019531 50.003906 13.0625 50 L 49 50 C 49.550781 50 50 49.550781 50 49 L 50 13.0625 C 50 13.042969 50 13.019531 50 13 C 50 12.988281 50 12.980469 50 12.96875 C 50 12.949219 50 12.925781 50 12.90625 C 50 12.894531 50 12.886719 50 12.875 C 49.992188 12.855469 49.980469 12.832031 49.96875 12.8125 C 49.96875 12.800781 49.96875 12.792969 49.96875 12.78125 C 49.960938 12.75 49.949219 12.71875 49.9375 12.6875 C 49.9375 12.675781 49.9375 12.667969 49.9375 12.65625 C 49.925781 12.644531 49.917969 12.636719 49.90625 12.625 C 49.90625 12.613281 49.90625 12.605469 49.90625 12.59375 C 49.886719 12.550781 49.867188 12.507813 49.84375 12.46875 C 49.835938 12.449219 49.824219 12.425781 49.8125 12.40625 C 49.765625 12.347656 49.714844 12.296875 49.65625 12.25 L 49.59375 12.1875 C 49.554688 12.152344 49.511719 12.121094 49.46875 12.09375 L 35.65625 0.25 C 35.476563 0.0898438 35.242188 0 35 0 L 1.09375 0 C 1.03125 -0.0078125 0.96875 -0.0078125 0.90625 0 C 0.875 0 0.84375 0 0.8125 0 Z M 3.4375 2 L 34.625 2 L 35.1875 2.46875 C 35.085938 2.625 35 2.796875 35 3 C 35 3.550781 35.449219 4 36 4 C 36.25 4 36.480469 3.902344 36.65625 3.75 L 38.375 5.21875 C 38.148438 5.402344 38 5.683594 38 6 C 38 6.550781 38.449219 7 39 7 C 39.375 7 39.671875 6.773438 39.84375 6.46875 L 41.71875 8.0625 C 41.3125 8.1875 41 8.550781 41 9 C 41 9.550781 41.449219 10 42 10 C 42.507813 10 42.902344 9.613281 42.96875 9.125 L 45.1875 11.0625 C 45.121094 11.046875 45.070313 11 45 11 C 44.449219 11 44 11.449219 44 12 L 40 12 C 40 11.449219 39.550781 11 39 11 C 38.449219 11 38 11.449219 38 12 L 34 12 C 34 11.449219 33.550781 11 33 11 C 32.449219 11 32 11.449219 32 12 L 28 12 C 28 11.449219 27.550781 11 27 11 C 26.449219 11 26 11.449219 26 12 L 22 12 C 22 11.449219 21.550781 11 21 11 C 20.449219 11 20 11.449219 20 12 L 16 12 C 16 11.449219 15.550781 11 15 11 C 14.449219 11 14 11.449219 14 12 L 13.4375 12 Z M 30 2 C 29.449219 2 29 2.449219 29 3 C 29 3.550781 29.449219 4 30 4 C 30.550781 4 31 3.550781 31 3 C 31 2.449219 30.550781 2 30 2 Z M 24 2 C 23.449219 2 23 2.449219 23 3 C 23 3.550781 23.449219 4 24 4 C 24.550781 4 25 3.550781 25 3 C 25 2.449219 24.550781 2 24 2 Z M 18 2 C 17.449219 2 17 2.449219 17 3 C 17 3.550781 17.449219 4 18 4 C 18.550781 4 19 3.550781 19 3 C 19 2.449219 18.550781 2 18 2 Z M 12 2 C 11.449219 2 11 2.449219 11 3 C 11 3.550781 11.449219 4 12 4 C 12.550781 4 13 3.550781 13 3 C 13 2.449219 12.550781 2 12 2 Z M 6 2 C 5.449219 2 5 2.449219 5 3 C 5 3.550781 5.449219 4 6 4 C 6.550781 4 7 3.550781 7 3 C 7 2.449219 6.550781 2 6 2 Z M 2 3.4375 L 12 13.4375 L 12 46.3125 L 2 34.625 Z M 9 5 C 8.449219 5 8 5.449219 8 6 C 8 6.550781 8.449219 7 9 7 C 9.550781 7 10 6.550781 10 6 C 10 5.449219 9.550781 5 9 5 Z M 15 5 C 14.449219 5 14 5.449219 14 6 C 14 6.550781 14.449219 7 15 7 C 15.550781 7 16 6.550781 16 6 C 16 5.449219 15.550781 5 15 5 Z M 21 5 C 20.449219 5 20 5.449219 20 6 C 20 6.550781 20.449219 7 21 7 C 21.550781 7 22 6.550781 22 6 C 22 5.449219 21.550781 5 21 5 Z M 27 5 C 26.449219 5 26 5.449219 26 6 C 26 6.550781 26.449219 7 27 7 C 27.550781 7 28 6.550781 28 6 C 28 5.449219 27.550781 5 27 5 Z M 33 5 C 32.449219 5 32 5.449219 32 6 C 32 6.550781 32.449219 7 33 7 C 33.550781 7 34 6.550781 34 6 C 34 5.449219 33.550781 5 33 5 Z M 12 8 C 11.449219 8 11 8.449219 11 9 C 11 9.550781 11.449219 10 12 10 C 12.550781 10 13 9.550781 13 9 C 13 8.449219 12.550781 8 12 8 Z M 18 8 C 17.449219 8 17 8.449219 17 9 C 17 9.550781 17.449219 10 18 10 C 18.550781 10 19 9.550781 19 9 C 19 8.449219 18.550781 8 18 8 Z M 24 8 C 23.449219 8 23 8.449219 23 9 C 23 9.550781 23.449219 10 24 10 C 24.550781 10 25 9.550781 25 9 C 25 8.449219 24.550781 8 24 8 Z M 30 8 C 29.449219 8 29 8.449219 29 9 C 29 9.550781 29.449219 10 30 10 C 30.550781 10 31 9.550781 31 9 C 31 8.449219 30.550781 8 30 8 Z M 36 8 C 35.449219 8 35 8.449219 35 9 C 35 9.550781 35.449219 10 36 10 C 36.550781 10 37 9.550781 37 9 C 37 8.449219 36.550781 8 36 8 Z M 45.90625 11.65625 L 46.3125 12 L 46 12 C 46 11.871094 45.949219 11.769531 45.90625 11.65625 Z M 14 14 L 48 14 L 48 48 L 14 48 Z "/>
</g>
</svg>