<?xml version="1.0" encoding="utf-8"?>
<!-- Generator: Adobe Illustrator 22.1.0, SVG Export Plug-In . SVG Version: 6.00 Build 0)  -->
<svg version="1.1" id="Layer_1" xmlns="http://www.w3.org/2000/svg" xmlns:xlink="http://www.w3.org/1999/xlink" x="0px" y="0px"
	 viewBox="0 0 50 50" style="enable-background:new 0 0 50 50;" xml:space="preserve">
<path d="M21,37c-9.4,0-17-7.6-17-17c0-9.4,7.6-17,17-17s17,7.6,17,17C38,29.4,30.4,37,21,37z M21,5C12.7,5,6,11.7,6,20s6.7,15,15,15
	c8.3,0,15-6.7,15-15S29.3,5,21,5z"/>
<rect x="36.9" y="29.4" transform="matrix(0.7071 -0.7071 0.7071 0.7071 -16.0921 38.848)" width="4" height="18.8"/>
<path d="M29.8,15.2c0-0.7-0.5-1-1-1.2c0,0-3.7,0.4-5.1,0.5c-1,0.1-1.6-0.7-0.8-2c0.6-0.9,0.8-1.2,0.8-2c0-1.6-1.4-3-3-3
	c-1.7,0-3,1.3-3,3c0,0.7,0.3,1.3,0.8,2c0.9,1.3,0.4,2.1-0.8,2c-1.2-0.1-5.1-0.5-5.1-0.5c-0.7-0.1-0.9,0.4-1,1.2c0,0-0.2,0.8-0.5,5.1
	c0,0.1,0,0.2,0,0.3c0.2,0.9,1.1,0.3,2.1-0.3c0.6-0.4,1.3-0.8,2-0.8c1.7,0,3,1.3,3,3c0,1.6-1.4,3-3,3c-0.8,0-1.4-0.3-2.1-0.8
	c-0.7-0.6-1.7-1.2-2-0.5c-0.1,0.1-0.1,0.4,0,0.5c0.3,3.1,0.4,3.2,0.5,3.7s0.5,1,1,1h15.8c0.9,0,1.4-0.5,1.4-1.4
	C29.8,27.5,29.8,15.9,29.8,15.2z"/>
</svg>
