<?xml version="1.0" encoding="utf-8"?>
<!-- Generator: Adobe Illustrator 22.1.0, SVG Export Plug-In . SVG Version: 6.00 Build 0)  -->
<svg version="1.1" id="Layer_1" xmlns="http://www.w3.org/2000/svg" xmlns:xlink="http://www.w3.org/1999/xlink" x="0px" y="0px"
	 viewBox="0 0 50 50" style="enable-background:new 0 0 50 50;" xml:space="preserve">
<path d="M20.8,36.6c-3.2,0-5.9-2.6-6-6c-0.1-2.5,1.5-4.7,3.9-5.6c0.5-0.2,1.1,0.1,1.3,0.6c0.2,0.5-0.1,1.1-0.6,1.3
	c-1.7,0.6-2.7,2-2.6,3.7c0.1,2.3,1.8,4,4,4c2.2,0,4-1.8,4-4V16.4c0-0.6,0.4-1,1-1c0.6,0,1,0.4,1,1v14.4c0,0,0,0.1,0,0.1
	C26.6,34.1,24,36.6,20.8,36.6z"/>
<g>
	<path d="M14,42.3c1.2,0,2.3-0.2,3.4-0.6c1.3,4.5,5.3,7.6,10.1,7.6c5.8,0,10.5-4.7,10.5-10.5c0-0.2,0-0.3,0-0.5c0,0,0,0,0,0
		c4.4,0,8-3.6,8-8c0-3-1.6-5.5-4-6.9c0,0.7-0.3,1.4-0.7,1.9c1.7,1.1,2.8,2.9,2.8,5c0,3.3-2.7,6-6,6c-0.3,0-0.6,0-1-0.1L35.6,36
		l0.2,1.4c0.1,0.5,0.1,1,0.1,1.4c0,4.7-3.8,8.5-8.5,8.5c-4.2,0-7.7-3-8.4-7.2l-0.2-1.4l-1.2,0.6c-1.2,0.6-2.4,0.9-3.7,0.9
		c-4.4,0-8-3.6-8-8c0-4,3-7.3,6.8-7.9c-0.6-0.5-1.1-1.1-1.5-1.7c-4.2,1.2-7.3,5-7.3,9.6C4,37.8,8.5,42.3,14,42.3z"/>
</g>
<path d="M33.3,29.9c-2.5,0-4.5-2-4.5-4.5V14c0-0.6,0.4-1,1-1s1,0.4,1,1v11.4c0,1.4,1.1,2.5,2.5,2.5s2.5-1.1,2.5-2.5
	c0-1-0.6-2-1.6-2.3c-0.5-0.2-0.8-0.8-0.6-1.3c0.2-0.5,0.8-0.8,1.3-0.6c1.7,0.7,2.9,2.3,2.9,4.2C37.8,27.9,35.7,29.9,33.3,29.9z"/>
<path d="M18.8,23c-2.2,0-4-1.8-4-4c0-1.5,0.8-2.9,2.2-3.5c0.5-0.2,1.1,0,1.3,0.4c0.2,0.5,0,1.1-0.4,1.3c-0.6,0.3-1,1-1,1.7
	c0,1.1,0.9,2,2,2s2-0.9,2-2v-5c0-0.6,0.4-1,1-1s1,0.4,1,1v5C22.8,21.2,21,23,18.8,23z"/>
<path d="M27.4,13C27.4,13,27.4,13,27.4,13l-3.3,0c-0.1,0-0.2,0-0.2,0c-0.1,0-0.3-0.1-0.4-0.2c-0.1-0.1-0.2-0.2-0.3-0.3
	c0-0.1-0.1-0.1-0.1-0.2l-1.7-6.5h-1.1c-0.6,0-1-0.4-1-1V0.4c0-0.6,0.4-1,1-1h10.9c0.6,0,1,0.4,1,1v4.3c0,0.6-0.4,1-1,1h-0.8
	l-2.1,6.5c0,0.1,0,0.1-0.1,0.2c-0.1,0.1-0.2,0.2-0.3,0.3c-0.1,0.1-0.3,0.2-0.4,0.2C27.5,13,27.5,13,27.4,13z M24.9,11h1.8l1.7-5.2
	h-4.8L24.9,11z M29.9,3.8h0.3V1.4h-8.9v2.3H22c0.1,0,0.2,0,0.4,0h7.2C29.6,3.7,29.7,3.7,29.9,3.8z"/>
</svg>
