<?xml version="1.0" encoding="utf-8"?>
<!-- Generator: Adobe Illustrator 22.1.0, SVG Export Plug-In . SVG Version: 6.00 Build 0)  -->
<svg version="1.1" id="Layer_1" xmlns="http://www.w3.org/2000/svg" xmlns:xlink="http://www.w3.org/1999/xlink" x="0px" y="0px"
	 viewBox="0 0 50 50" style="enable-background:new 0 0 50 50;" xml:space="preserve">
<style type="text/css">
	.st0{fill:#FF0000;}
</style>
<path class="st0" d="M25,3C12.9,3,3,12.9,3,25s9.9,22,22,22s22-9.9,22-22S37.1,3,25,3z M33.7,32.3c0.4,0.4,0.4,1,0,1.4
	C33.5,33.9,33.3,34,33,34s-0.5-0.1-0.7-0.3L25,26.4l-7.3,7.3C17.5,33.9,17.3,34,17,34s-0.5-0.1-0.7-0.3c-0.4-0.4-0.4-1,0-1.4
	l7.3-7.3l-7.3-7.3c-0.4-0.4-0.4-1,0-1.4c0.4-0.4,1-0.4,1.4,0l7.3,7.3l7.3-7.3c0.4-0.4,1-0.4,1.4,0s0.4,1,0,1.4L26.4,25L33.7,32.3z"
	/>
</svg>
