<svg xmlns="http://www.w3.org/2000/svg" xmlns:xlink="http://www.w3.org/1999/xlink" viewBox="0 0 50 50" version="1.1" width="50" height="50" style="fill: rgb(0, 0, 0);">
<g id="surface1">
<path style=" " d="M 0.8125 0 C 0.78125 0.0078125 0.75 0.0195313 0.71875 0.03125 C 0.6875 0.0390625 0.65625 0.0507813 0.625 0.0625 C 0.59375 0.0703125 0.5625 0.0820313 0.53125 0.09375 C 0.519531 0.105469 0.511719 0.113281 0.5 0.125 C 0.480469 0.132813 0.457031 0.144531 0.4375 0.15625 C 0.425781 0.167969 0.417969 0.175781 0.40625 0.1875 C 0.386719 0.195313 0.363281 0.207031 0.34375 0.21875 C 0.34375 0.230469 0.34375 0.238281 0.34375 0.25 C 0.324219 0.257813 0.300781 0.269531 0.28125 0.28125 C 0.269531 0.292969 0.261719 0.300781 0.25 0.3125 C 0.238281 0.324219 0.230469 0.332031 0.21875 0.34375 C 0.207031 0.363281 0.195313 0.386719 0.1875 0.40625 C 0.175781 0.417969 0.167969 0.425781 0.15625 0.4375 C 0.15625 0.449219 0.15625 0.457031 0.15625 0.46875 C 0.132813 0.488281 0.113281 0.507813 0.09375 0.53125 C 0.09375 0.542969 0.09375 0.550781 0.09375 0.5625 C 0.0820313 0.574219 0.0742188 0.582031 0.0625 0.59375 C 0.0625 0.613281 0.0625 0.636719 0.0625 0.65625 C 0.0507813 0.667969 0.0429688 0.675781 0.03125 0.6875 C 0.03125 0.707031 0.03125 0.730469 0.03125 0.75 C 0.0195313 0.761719 0.0117188 0.769531 0 0.78125 C 0 0.800781 0 0.824219 0 0.84375 C -0.0195313 0.957031 -0.0195313 1.074219 0 1.1875 L 0 35 C 0 35.242188 0.0898438 35.476563 0.25 35.65625 L 12.1875 49.5625 L 12.25 49.65625 C 12.269531 49.679688 12.289063 49.699219 12.3125 49.71875 C 12.332031 49.742188 12.351563 49.761719 12.375 49.78125 C 12.40625 49.804688 12.4375 49.824219 12.46875 49.84375 C 12.488281 49.867188 12.507813 49.886719 12.53125 49.90625 C 12.542969 49.90625 12.550781 49.90625 12.5625 49.90625 C 12.582031 49.917969 12.605469 49.929688 12.625 49.9375 C 12.636719 49.9375 12.644531 49.9375 12.65625 49.9375 C 12.675781 49.949219 12.699219 49.960938 12.71875 49.96875 C 12.730469 49.96875 12.738281 49.96875 12.75 49.96875 C 12.8125 49.984375 12.875 49.996094 12.9375 50 C 12.980469 50.003906 13.019531 50.003906 13.0625 50 L 49 50 C 49.550781 50 50 49.550781 50 49 L 50 13.0625 C 50 13.042969 50 13.019531 50 13 C 50 12.988281 50 12.980469 50 12.96875 C 50 12.949219 50 12.925781 50 12.90625 C 50 12.894531 50 12.886719 50 12.875 C 49.992188 12.855469 49.980469 12.832031 49.96875 12.8125 C 49.96875 12.800781 49.96875 12.792969 49.96875 12.78125 C 49.960938 12.75 49.949219 12.71875 49.9375 12.6875 C 49.9375 12.675781 49.9375 12.667969 49.9375 12.65625 C 49.925781 12.644531 49.917969 12.636719 49.90625 12.625 C 49.90625 12.613281 49.90625 12.605469 49.90625 12.59375 C 49.886719 12.550781 49.867188 12.507813 49.84375 12.46875 C 49.835938 12.449219 49.824219 12.425781 49.8125 12.40625 C 49.765625 12.347656 49.714844 12.296875 49.65625 12.25 L 49.59375 12.1875 C 49.554688 12.152344 49.511719 12.121094 49.46875 12.09375 L 35.65625 0.25 C 35.476563 0.0898438 35.242188 0 35 0 L 1.09375 0 C 1.03125 -0.0078125 0.96875 -0.0078125 0.90625 0 C 0.875 0 0.84375 0 0.8125 0 Z M 3.4375 2 L 34.625 2 L 46.3125 12 L 13.4375 12 Z M 2.90625 4.375 L 4.625 6.09375 C 4.265625 6.246094 4 6.585938 4 7 C 4 7.550781 4.449219 8 5 8 C 5.414063 8 5.753906 7.734375 5.90625 7.375 L 7.625 9.09375 C 7.265625 9.246094 7 9.585938 7 10 C 7 10.550781 7.449219 11 8 11 C 8.414063 11 8.753906 10.734375 8.90625 10.375 L 10.625 12.09375 C 10.265625 12.246094 10 12.585938 10 13 C 10 13.550781 10.449219 14 11 14 C 11.414063 14 11.753906 13.734375 11.90625 13.375 L 12 13.4375 L 12 46.3125 L 4.84375 37.96875 C 4.898438 37.976563 4.941406 38 5 38 C 5.550781 38 6 37.550781 6 37 C 6 36.449219 5.550781 36 5 36 C 4.457031 36 4.015625 36.429688 4 36.96875 L 2.25 34.9375 C 2.671875 34.820313 3 34.460938 3 34 C 3 33.449219 2.550781 33 2 33 L 2 29 C 2.550781 29 3 28.550781 3 28 C 3 27.449219 2.550781 27 2 27 L 2 23 C 2.550781 23 3 22.550781 3 22 C 3 21.449219 2.550781 21 2 21 L 2 17 C 2.550781 17 3 16.550781 3 16 C 3 15.449219 2.550781 15 2 15 L 2 11 C 2.550781 11 3 10.550781 3 10 C 3 9.449219 2.550781 9 2 9 L 2 5 C 2.414063 5 2.753906 4.734375 2.90625 4.375 Z M 12 43 C 12 42.449219 11.550781 42 11 42 C 10.449219 42 10 42.449219 10 43 C 10 43.550781 10.449219 44 11 44 C 11.550781 44 12 43.550781 12 43 Z M 12 37 C 12 36.449219 11.550781 36 11 36 C 10.449219 36 10 36.449219 10 37 C 10 37.550781 10.449219 38 11 38 C 11.550781 38 12 37.550781 12 37 Z M 12 31 C 12 30.449219 11.550781 30 11 30 C 10.449219 30 10 30.449219 10 31 C 10 31.550781 10.449219 32 11 32 C 11.550781 32 12 31.550781 12 31 Z M 12 25 C 12 24.449219 11.550781 24 11 24 C 10.449219 24 10 24.449219 10 25 C 10 25.550781 10.449219 26 11 26 C 11.550781 26 12 25.550781 12 25 Z M 12 19 C 12 18.449219 11.550781 18 11 18 C 10.449219 18 10 18.449219 10 19 C 10 19.550781 10.449219 20 11 20 C 11.550781 20 12 19.550781 12 19 Z M 5 12 C 4.449219 12 4 12.449219 4 13 C 4 13.550781 4.449219 14 5 14 C 5.550781 14 6 13.550781 6 13 C 6 12.449219 5.550781 12 5 12 Z M 14 14 L 48 14 L 48 48 L 14 48 Z M 8 15 C 7.449219 15 7 15.449219 7 16 C 7 16.550781 7.449219 17 8 17 C 8.550781 17 9 16.550781 9 16 C 9 15.449219 8.550781 15 8 15 Z M 5 18 C 4.449219 18 4 18.449219 4 19 C 4 19.550781 4.449219 20 5 20 C 5.550781 20 6 19.550781 6 19 C 6 18.449219 5.550781 18 5 18 Z M 8 21 C 7.449219 21 7 21.449219 7 22 C 7 22.550781 7.449219 23 8 23 C 8.550781 23 9 22.550781 9 22 C 9 21.449219 8.550781 21 8 21 Z M 5 24 C 4.449219 24 4 24.449219 4 25 C 4 25.550781 4.449219 26 5 26 C 5.550781 26 6 25.550781 6 25 C 6 24.449219 5.550781 24 5 24 Z M 8 27 C 7.449219 27 7 27.449219 7 28 C 7 28.550781 7.449219 29 8 29 C 8.550781 29 9 28.550781 9 28 C 9 27.449219 8.550781 27 8 27 Z M 5 30 C 4.449219 30 4 30.449219 4 31 C 4 31.550781 4.449219 32 5 32 C 5.550781 32 6 31.550781 6 31 C 6 30.449219 5.550781 30 5 30 Z M 8 33 C 7.449219 33 7 33.449219 7 34 C 7 34.550781 7.449219 35 8 35 C 8.550781 35 9 34.550781 9 34 C 9 33.449219 8.550781 33 8 33 Z M 8 39 C 7.449219 39 7 39.449219 7 40 C 7 40.550781 7.449219 41 8 41 C 8.550781 41 9 40.550781 9 40 C 9 39.449219 8.550781 39 8 39 Z "/>
</g>
</svg>