<?xml version="1.0" encoding="utf-8"?>
<!-- Generator: Adobe Illustrator 22.1.0, SVG Export Plug-In . SVG Version: 6.00 Build 0)  -->
<svg version="1.1" id="Layer_1" xmlns="http://www.w3.org/2000/svg" xmlns:xlink="http://www.w3.org/1999/xlink" x="0px" y="0px"
	 viewBox="0 0 50 50" style="enable-background:new 0 0 50 50;" xml:space="preserve">
<path d="M42.8,49.2c-0.6,0-1-0.3-1-0.9V18.4c0-0.5,0.4-0.9,1-0.9s1,0.3,1,0.9v29.9C43.8,48.9,43.4,49.2,42.8,49.2z"/>
<path d="M32.5,47.9H3c-0.6,0-1-0.4-1-1V17.4c0-0.6,0.4-1,1-1h29.5c0.6,0,1,0.4,1,1v29.5C33.5,47.5,33.1,47.9,32.5,47.9z M4,45.9
	h27.5V18.4H4V45.9z"/>
<g>
	<polygon points="46.7,21.3 38.8,21.3 42.8,17.6 	"/>
	<path d="M46.7,22.3h-7.9c-0.4,0-0.8-0.3-0.9-0.6c-0.1-0.4,0-0.8,0.3-1.1l4-3.7c0.4-0.4,1-0.4,1.4,0l3.9,3.7
		c0.3,0.3,0.4,0.7,0.2,1.1C47.5,22.1,47.1,22.3,46.7,22.3z M41.4,20.3h2.8L42.8,19L41.4,20.3z"/>
</g>
<path d="M31.9,7.9H2c-0.5,0-0.9-0.4-0.9-1s0.3-1,0.9-1h29.9c0.5,0,0.9,0.4,0.9,1S32.4,7.9,31.9,7.9z"/>
<g>
	<polygon points="28.9,10.8 28.9,3 32.7,6.9 	"/>
	<path d="M28.9,11.8c-0.1,0-0.3,0-0.4-0.1c-0.4-0.2-0.6-0.5-0.6-0.9V3c0-0.4,0.2-0.8,0.6-0.9c0.4-0.2,0.8-0.1,1.1,0.2l3.8,3.9
		c0.4,0.4,0.4,1,0,1.4l-3.8,3.9C29.4,11.7,29.2,11.8,28.9,11.8z M29.9,5.5v2.9l1.4-1.5L29.9,5.5z"/>
</g>
<g>
	<path d="M17.4,43.6c-6.1,0-11-4.9-11-11s4.9-11,11-11s11,4.9,11,11S23.5,43.6,17.4,43.6z M17.4,23.6c-5,0-9,4-9,9s4,9,9,9s9-4,9-9
		S22.4,23.6,17.4,23.6z"/>
	<rect x="7.5" y="31.6" transform="matrix(0.7071 -0.7071 0.7071 0.7071 -17.9462 21.8741)" width="19.8" height="2"/>
</g>
</svg>
