<?xml version="1.0" encoding="utf-8"?>
<!-- Generator: Adobe Illustrator 23.0.1, SVG Export Plug-In . SVG Version: 6.00 Build 0)  -->
<svg version="1.1" id="Layer_1" xmlns="http://www.w3.org/2000/svg" xmlns:xlink="http://www.w3.org/1999/xlink" x="0px" y="0px"
	 viewBox="0 0 50 50" style="enable-background:new 0 0 50 50;" xml:space="preserve">
<path d="M36.2,49c-1.8,0-4.3-1.1-5.6-3.1l-0.2-0.3c-1.5-2.3-2.5-3.6-6.1-4.7c-0.2-0.1-0.7-0.1-1.2-0.2c-1.8-0.2-5.1-0.5-5.1-3.4
	c0-1.1,0.8-1.9,1.5-2.5c0.7-0.6,1.1-1.1,1.1-1.6c0-0.5-1.6-0.8-2.5-0.9c-0.5-0.1-1-0.1-1.4-0.2c0,0-0.1,0-0.2,0
	c-1.1-0.2-4.4-0.8-6-3.1c-2,0.8-4,0.7-5.5-0.3c-1.3-0.8-2-2-2-3.3c0-2.8,2-4.7,4.7-4.7c1,0,2,0.3,2.7,0.8
	c1.1-5.9,6.1-10.2,12.3-10.2c2.7,0,5,0.8,6.9,1.5c2.4,0.9,3.7,1.3,4.6,0.4c0.3-0.3,0.5-0.6,0.7-1.2c0.3-0.7,0.6-1.6,1.6-2.6
	c-2-1.6-5.1-3-11.2-2.1c-2.1,0.3-5-0.1-6.5-1.4C18.1,5.3,18,4.6,18,4.1c0-3,2.2-4.1,8-4.1c4.2,0,11.6,2.7,14.6,7.6
	c4,0,6.8,1.6,8.5,4.7c0.8,1.5,1.5,5.7,0.3,7.9c-0.7,1.3-3.1,2-5,1.9c-1.3-0.1-2.5-0.4-3.7-0.8c0,5.3-1.9,11.7-9.3,16.2
	c3.4,1.6,7.2,4.6,7.2,9.6c0,0.9-0.6,1.7-1.5,2C36.9,49,36.6,49,36.2,49z M11,26.6c0.1,0,0.2,0,0.4,0.1c0.3,0.1,0.5,0.3,0.6,0.6
	c0.9,2.1,3.9,2.6,4.9,2.8c0.2,0,0.4,0.1,0.4,0.1c0.2,0.1,0.7,0.1,1.1,0.2c1.6,0.2,4.3,0.6,4.3,2.9c0,1.5-1,2.4-1.7,3.1
	c-0.4,0.4-0.8,0.8-0.8,1.1c0,0.9,1.2,1.2,3.3,1.4c0.6,0.1,1.2,0.1,1.6,0.2c4.3,1.3,5.5,3.2,7.1,5.5l0.2,0.3c0.9,1.3,2.4,2,3.5,2.1
	c0.6,0.1,0.9,0,1-0.1c0-4.8-4.7-7.3-7.8-8.4c0,0-0.1,0-0.1,0c-0.8-0.3-1.5-0.5-2-0.6c-0.6-0.2-0.8-0.6-0.8-0.9
	c-0.1-0.4,0.1-0.8,0.5-1c1.2-0.7,4.7-3,4.7-7.8c0-3.3-2-5.1-3.7-6.1c-0.5-0.3-0.7-0.9-0.4-1.4c0.3-0.5,0.9-0.7,1.4-0.4
	c3.1,1.8,4.7,4.6,4.7,7.9c0,3.2-1.2,5.9-3.7,8c8.2-4.5,9.5-11.5,9.2-16.6c0-0.4,0.2-0.8,0.5-0.9c0.3-0.2,0.7-0.2,1.1,0
	c1.2,0.8,2.6,1.3,4.3,1.4c1.6,0.1,2.8-0.5,3-0.8c0.7-1.4,0.2-4.9-0.3-5.9c-1.4-2.6-3.7-3.8-7.3-3.6c-0.4,0-0.8-0.2-0.9-0.5
	C36.8,4.8,29.8,2,26,2c-6,0-6,1.2-6,2.1c0,0.1,0.1,0.2,0.2,0.3C21,5.1,23.3,5.5,25,5.3c6.1-0.9,10.3,0.2,13.7,3.4
	c0.2,0.2,0.3,0.5,0.3,0.8c0,0.3-0.2,0.6-0.4,0.8c-1.2,0.9-1.5,1.7-1.8,2.5c-0.2,0.6-0.5,1.4-1.2,2c-1.9,1.7-4.2,0.8-6.7,0
	c-1.8-0.6-3.8-1.4-6.2-1.4c-5.2,0-10.5,4-10.5,10.7c0,0.5-0.4,0.9-0.9,1c-0.5,0.1-1-0.2-1.1-0.7c-0.3-0.9-1.3-1.5-2.5-1.5
	c-1.7,0-2.7,1-2.7,2.7c0,0.4,0.3,1.1,1.1,1.6c0.7,0.4,2.1,0.9,4.4-0.2C10.7,26.7,10.8,26.6,11,26.6z M27,36.8L27,36.8L27,36.8z"/>
<path d="M9.7,13h-7c-0.6,0-1-0.4-1-1s0.4-1,1-1h7c0.6,0,1,0.4,1,1S10.2,13,9.7,13z"/>
<path d="M14.5,9H4.3c-0.6,0-1-0.4-1-1s0.4-1,1-1h10.2c0.6,0,1,0.4,1,1S15.1,9,14.5,9z"/>
<path d="M7.4,17H1c-0.6,0-1-0.4-1-1c0-0.6,0.4-1,1-1h6.4c0.6,0,1,0.4,1,1C8.4,16.6,8,17,7.4,17z"/>
<circle cx="45.5" cy="15.5" r="1.5"/>
</svg>
