<?xml version="1.0" encoding="utf-8"?>
<!-- Generator: Adobe Illustrator 22.1.0, SVG Export Plug-In . SVG Version: 6.00 Build 0)  -->
<svg version="1.1" id="Layer_1" xmlns="http://www.w3.org/2000/svg" xmlns:xlink="http://www.w3.org/1999/xlink" x="0px" y="0px"
	 viewBox="0 0 50 50" style="enable-background:new 0 0 50 50;" xml:space="preserve">
<style type="text/css">
	.st0{fill:none;stroke:#000000;stroke-width:2;stroke-linecap:round;stroke-linejoin:round;stroke-miterlimit:10;}
	.st1{enable-background:new    ;}
</style>
<rect x="24" y="0" width="2" height="10"/>
<rect x="24" y="40" width="2" height="10"/>
<rect x="40" y="24" width="10" height="2"/>
<rect y="24" width="10" height="2"/>
<path d="M25,46C13.4,46,4,36.6,4,25S13.4,4,25,4c11.6,0,21,9.4,21,21c0,1.9-0.3,3.8-0.8,5.9c-0.1,0.5-0.7,0.8-1.2,0.7
	c-0.5-0.1-0.8-0.7-0.7-1.2c0.5-1.9,0.8-3.6,0.8-5.3c0-10.5-8.5-19-19-19S6,14.5,6,25c0,10.5,8.5,19,19,19c1.8,0,3.6-0.3,5.4-0.8
	c0.5-0.1,1.1,0.2,1.2,0.7c0.1,0.5-0.2,1.1-0.7,1.2C29,45.7,27,46,25,46z"/>
<path class="st0" d="M34.8,42.5"/>
<path class="st0" d="M41.9,35.7"/>
<path d="M35.5,36.7l0.9,9.6c0,0.1,0.1,0.2,0.2,0.3c0.1,0,0.2,0,0.3-0.1l1.7-1.8l4.1,3.8c0.1,0.1,0.3,0.1,0.4,0l5-5.5
	c0.1-0.1,0.1-0.3,0-0.4L44,38.8l1.7-1.8c0.1-0.1,0.1-0.2,0.1-0.3c0,0,0-0.1-0.1-0.1c-0.1-0.1-0.1-0.1-0.2-0.1h-9.7
	C35.7,36.5,35.6,36.5,35.5,36.7C35.5,36.6,35.5,36.6,35.5,36.7z"/>
<g class="st1">
	<path d="M16.9,25.2l-3.7-6.4c-0.1-0.2-0.3-0.5-0.3-0.8c0-0.5,0.5-1,1-1c0.7,0,0.9,0.5,1.2,1l2.9,5l2.9-5c0.3-0.5,0.5-1,1.2-1
		c0.5,0,1,0.4,1,1c0,0.3-0.1,0.5-0.3,0.8l-3.7,6.4l3.7,6.4c0.1,0.2,0.3,0.5,0.3,0.8c0,0.5-0.5,1-1,1c-0.7,0-0.9-0.5-1.2-1l-2.9-5
		l-2.9,5c-0.3,0.5-0.5,1-1.2,1c-0.5,0-1-0.4-1-1c0-0.3,0.1-0.5,0.3-0.8L16.9,25.2z"/>
	<path d="M34.2,32.3c0,0.7-0.3,1-1.1,1s-1-0.4-1-1v-6.7L28,20.2v-2.1c0-0.7,0.3-1,1-1s1,0.4,1,1v1.4l3.1,4l3.1-4v-1.4
		c0-0.7,0.3-1,1-1s1,0.4,1,1v2.1l-4.1,5.4V32.3z"/>
</g>
</svg>
