<?xml version="1.0" encoding="utf-8"?>
<!-- Generator: Adobe Illustrator 23.0.1, SVG Export Plug-In . SVG Version: 6.00 Build 0)  -->
<svg version="1.1" id="Layer_1" xmlns="http://www.w3.org/2000/svg" xmlns:xlink="http://www.w3.org/1999/xlink" x="0px" y="0px"
	 viewBox="0 0 50 50" style="enable-background:new 0 0 50 50;" xml:space="preserve">
<path d="M25,33c-1.7,0-3-1.3-3-3s1.3-3,3-3s3,1.3,3,3S26.7,33,25,33z M25,29c-0.6,0-1,0.4-1,1s0.4,1,1,1s1-0.4,1-1S25.6,29,25,29z"
	/>
<path d="M26.7,30c-0.3,0-0.7-0.2-0.9-0.5c-0.3-0.5-0.1-1.1,0.4-1.4l9.8-5.8c0.5-0.3,1.1-0.1,1.4,0.4s0.1,1.1-0.4,1.4l-9.8,5.8
	C27,30,26.9,30,26.7,30z"/>
<path d="M25,14c-0.6,0-1-0.4-1-1V8c0-0.6,0.4-1,1-1s1,0.4,1,1v5C26,13.6,25.6,14,25,14z"/>
<path d="M8,31H3c-0.6,0-1-0.4-1-1s0.4-1,1-1h5c0.6,0,1,0.4,1,1S8.6,31,8,31z"/>
<path d="M47,31h-4c-0.6,0-1-0.4-1-1s0.4-1,1-1h4c0.6,0,1,0.4,1,1S47.6,31,47,31z"/>
<path d="M47,31h-5c-0.6,0-1-0.4-1-1s0.4-1,1-1h5c0.6,0,1,0.4,1,1S47.6,31,47,31z"/>
<path d="M31,40H19c-0.6,0-1-0.4-1-1s0.4-1,1-1h12c0.6,0,1,0.4,1,1S31.6,40,31,40z"/>
<path d="M33.1,16.1c-0.2,0-0.3,0-0.5-0.1c-0.5-0.3-0.7-0.9-0.4-1.4l2.4-4.4c0.3-0.5,0.9-0.7,1.4-0.4s0.7,0.9,0.4,1.4L34,15.5
	C33.8,15.9,33.5,16.1,33.1,16.1z"/>
<path d="M39.6,22.3c-0.3,0-0.7-0.2-0.9-0.5c-0.3-0.5-0.1-1.1,0.3-1.4l4.3-2.6c0.5-0.3,1.1-0.1,1.4,0.3c0.3,0.5,0.1,1.1-0.3,1.4
	l-4.3,2.6C39.9,22.2,39.7,22.3,39.6,22.3z"/>
<path d="M10,22.9c-0.2,0-0.3,0-0.5-0.1l-4.4-2.4c-0.5-0.3-0.7-0.9-0.4-1.4s0.9-0.7,1.4-0.4l4.4,2.4c0.5,0.3,0.7,0.9,0.4,1.4
	C10.7,22.7,10.4,22.9,10,22.9z"/>
<path d="M16.3,16.4c-0.3,0-0.7-0.2-0.9-0.5l-2.6-4.3c-0.3-0.5-0.1-1.1,0.3-1.4c0.5-0.3,1.1-0.1,1.4,0.3l2.6,4.3
	c0.3,0.5,0.1,1.1-0.3,1.4C16.6,16.4,16.4,16.4,16.3,16.4z"/>
<path d="M44,42c-0.1,0-0.2,0-0.3,0c-0.1,0-0.2-0.1-0.3-0.2l-4.2-2.4c-0.5-0.3-0.6-0.9-0.4-1.4c0.3-0.5,0.9-0.6,1.4-0.4l3.4,2
	c1.6-2.9,2.4-6.1,2.4-9.6c0-11.6-9.4-21-21-21C13.4,9,4,18.4,4,30c0,3.5,0.8,6.7,2.4,9.6l3.4-2c0.5-0.3,1.1-0.1,1.4,0.4
	c0.3,0.5,0.1,1.1-0.4,1.4l-4.2,2.4c-0.1,0.1-0.2,0.1-0.3,0.1c-0.4,0.1-0.9,0-1.2-0.4C3,38,2,34.3,2,30C2,17.3,12.3,7,25,7
	c12.7,0,23,10.3,23,23c0,4.3-1,8-3.1,11.5C44.7,41.8,44.3,42,44,42z"/>
</svg>
