<?xml version="1.0" encoding="utf-8"?>
<!-- Generator: Adobe Illustrator 27.1.1, SVG Export Plug-In . SVG Version: 6.00 Build 0)  -->
<svg version="1.1" id="Layer_1" xmlns="http://www.w3.org/2000/svg" xmlns:xlink="http://www.w3.org/1999/xlink" x="0px" y="0px"
	 viewBox="0 0 50 50" style="enable-background:new 0 0 50 50;" xml:space="preserve">
<path d="M42.8,49.2c-0.6,0-1-0.4-1-0.9V18.4c0-0.5,0.4-0.9,1-0.9s1,0.4,1,0.9v29.9C43.8,48.8,43.3,49.2,42.8,49.2z"/>
<path d="M32.5,47.9H3c-0.6,0-1-0.4-1-1V17.4c0-0.6,0.4-1,1-1h29.5c0.6,0,1,0.4,1,1v29.5C33.5,47.5,33.1,47.9,32.5,47.9z M4,45.9
	h27.5V18.4H4V45.9z"/>
<g>
	<g>
		<path d="M16.1,41.5v-7.2l-5.1-8.7c-0.4-0.8-0.8-1.4-0.9-1.8c-0.2-0.4-0.3-0.8-0.3-1.1c0-0.5,0.2-1,0.6-1.4
			c0.4-0.4,0.8-0.6,1.4-0.6c0.6,0,1,0.2,1.3,0.5c0.3,0.4,0.7,1.1,1.3,2.1l3.9,6.9l3.9-6.9c0.2-0.4,0.4-0.8,0.6-1.1
			c0.2-0.3,0.3-0.6,0.5-0.8c0.2-0.3,0.4-0.4,0.6-0.6c0.2-0.1,0.5-0.2,0.9-0.2c0.5,0,1,0.2,1.3,0.6s0.5,0.8,0.5,1.3
			c0,0.4-0.1,0.8-0.3,1.2s-0.5,1-0.9,1.7l-5.2,8.8v7.2c0,0.9-0.2,1.7-0.6,2.1c-0.4,0.5-0.9,0.7-1.5,0.7c-0.6,0-1.1-0.2-1.5-0.7
			C16.3,43.2,16.1,42.5,16.1,41.5z"/>
	</g>
</g>
<g>
	<polygon points="46.7,21.3 38.8,21.3 42.8,17.5 	"/>
	<path d="M46.7,22.3h-7.9c-0.4,0-0.8-0.2-0.9-0.6c-0.2-0.4-0.1-0.8,0.2-1.1l3.9-3.8c0.4-0.4,1-0.4,1.4,0l3.9,3.8
		c0.3,0.3,0.4,0.7,0.2,1.1C47.5,22.1,47.1,22.3,46.7,22.3z M41.3,20.3h2.9l-1.5-1.4L41.3,20.3z"/>
</g>
<path d="M31.8,7.9H1.9C1.4,7.9,1,7.5,1,6.9s0.4-1,0.9-1h29.9c0.5,0,0.9,0.4,0.9,1S32.3,7.9,31.8,7.9z"/>
<g>
	<polygon points="28.9,10.8 28.9,3 32.7,6.9 	"/>
	<path d="M28.9,11.8c-0.1,0-0.3,0-0.4-0.1c-0.4-0.2-0.6-0.5-0.6-0.9V3c0-0.4,0.2-0.8,0.6-0.9c0.4-0.2,0.8-0.1,1.1,0.2l3.8,3.9
		c0.4,0.4,0.4,1,0,1.4l-3.8,3.9C29.4,11.7,29.2,11.8,28.9,11.8z M29.9,5.4v2.9l1.4-1.5L29.9,5.4z"/>
</g>
<g>
	<path d="M45.4,7.6c0,0.6,0,1.2-0.1,1.7s-0.2,0.9-0.4,1.3c-0.3,0.5-0.6,0.8-1,1.1s-0.9,0.4-1.4,0.4c-0.6,0-1.1-0.2-1.6-0.5
		S40,10.6,39.7,10c-0.1-0.3-0.2-0.7-0.3-1.1s-0.1-0.8-0.1-1.3c0-0.6,0-1.1,0.1-1.6s0.2-0.9,0.3-1.2c0.2-0.6,0.6-1,1-1.3
		s1-0.4,1.6-0.4c0.4,0,0.8,0.1,1.1,0.2s0.6,0.3,0.9,0.6s0.5,0.6,0.6,0.9C45.2,5.5,45.4,6.4,45.4,7.6z M43.8,7.5c0-0.7,0-1.3-0.1-1.8
		s-0.2-0.8-0.4-1s-0.5-0.3-0.8-0.3c-0.5,0-0.9,0.3-1.1,0.8S41,6.4,41,7.5c0,0.7,0,1.3,0.1,1.8s0.2,0.8,0.4,1.1s0.5,0.4,0.8,0.4
		c0.4,0,0.6-0.1,0.8-0.4s0.3-0.6,0.4-1.1S43.8,8.2,43.8,7.5z"/>
</g>
</svg>
