<?xml version="1.0" encoding="utf-8"?>
<!-- Generator: Adobe Illustrator 22.1.0, SVG Export Plug-In . SVG Version: 6.00 Build 0)  -->
<svg version="1.1" id="Layer_1" xmlns="http://www.w3.org/2000/svg" xmlns:xlink="http://www.w3.org/1999/xlink" x="0px" y="0px"
	 viewBox="0 0 50 50" style="enable-background:new 0 0 50 50;" xml:space="preserve">
<path d="M27.4,13C27.4,13,27.4,13,27.4,13l-3.3,0c-0.1,0-0.2,0-0.2,0c-0.1,0-0.3-0.1-0.4-0.2c-0.1-0.1-0.2-0.2-0.3-0.3
	c0-0.1-0.1-0.1-0.1-0.2l-1.7-6.5h-1.1c-0.6,0-1-0.4-1-1V0.4c0-0.6,0.4-1,1-1h10.9c0.6,0,1,0.4,1,1v4.3c0,0.6-0.4,1-1,1h-0.8
	l-2.1,6.5c0,0.1,0,0.1-0.1,0.2c-0.1,0.1-0.2,0.2-0.3,0.3c-0.1,0.1-0.3,0.2-0.4,0.2C27.5,13,27.5,13,27.4,13z M24.9,11h1.8l1.7-5.2
	h-4.8L24.9,11z M29.9,3.8h0.3V1.4h-8.9v2.3H22c0.1,0,0.2,0,0.4,0h7.2C29.6,3.7,29.7,3.7,29.9,3.8z"/>
<path d="M25.9,48.1c-6.4,0-11.7-5.2-11.7-11.7c0-7.4,10.5-20.2,10.9-20.7c0.4-0.5,1.2-0.5,1.5,0c0.4,0.5,10.9,13.3,10.9,20.7
	C37.6,42.9,32.3,48.1,25.9,48.1z M25.9,18c-2.4,3.1-9.7,12.9-9.7,18.5c0,5.3,4.3,9.7,9.7,9.7c5.3,0,9.7-4.3,9.7-9.7
	C35.6,30.8,28.3,21.1,25.9,18z"/>
<path d="M25.2,44.6c0,0-0.1,0-0.1,0c-2.3-0.3-6.7-2.5-6.7-8.3c0-5.2,6.2-13.2,6.4-13.5c0.3-0.4,1-0.5,1.4-0.2c0.4,0.3,0.5,1,0.2,1.4
	c-0.1,0.1-6,7.8-6,12.3c0,5.4,4.8,6.2,5,6.3c0.5,0.1,0.9,0.6,0.8,1.1C26.1,44.2,25.6,44.6,25.2,44.6z"/>
</svg>
