<?xml version="1.0" encoding="utf-8"?>
<!-- Generator: Adobe Illustrator 22.1.0, SVG Export Plug-In . SVG Version: 6.00 Build 0)  -->
<svg version="1.1" id="Layer_1" xmlns="http://www.w3.org/2000/svg" xmlns:xlink="http://www.w3.org/1999/xlink" x="0px" y="0px"
	 viewBox="0 0 50 50" style="enable-background:new 0 0 50 50;" xml:space="preserve">
<style type="text/css">
	.st0{fill:none;stroke:#000000;stroke-width:2;stroke-linecap:round;stroke-linejoin:round;stroke-miterlimit:10;}
	.st1{enable-background:new    ;}
</style>
<rect x="24" y="0" width="2" height="10"/>
<rect x="24" y="40" width="2" height="10"/>
<rect x="40" y="24" width="10" height="2"/>
<rect y="24" width="10" height="2"/>
<path d="M25,46C13.4,46,4,36.6,4,25S13.4,4,25,4s21,9.4,21,21c0,1.9-0.3,3.8-0.8,5.9c-0.1,0.5-0.7,0.8-1.2,0.7
	c-0.5-0.1-0.8-0.7-0.7-1.2c0.5-1.9,0.8-3.6,0.8-5.3c0-10.5-8.5-19-19-19S6,14.5,6,25s8.5,19,19,19c1.8,0,3.6-0.3,5.4-0.8
	c0.5-0.1,1.1,0.2,1.2,0.7s-0.2,1.1-0.7,1.2C29,45.7,27,46,25,46z"/>
<path class="st0" d="M34.8,42.5"/>
<path class="st0" d="M41.9,35.7"/>
<path d="M35.5,36.7l0.9,9.6c0,0.1,0.1,0.2,0.2,0.3c0.1,0,0.2,0,0.3-0.1l1.7-1.8l4.1,3.8c0.1,0.1,0.3,0.1,0.4,0l5-5.5
	c0.1-0.1,0.1-0.3,0-0.4L44,38.8l1.7-1.8c0.1-0.1,0.1-0.2,0.1-0.3c0,0,0-0.1-0.1-0.1c-0.1-0.1-0.1-0.1-0.2-0.1h-9.7
	C35.7,36.5,35.6,36.5,35.5,36.7C35.5,36.6,35.5,36.6,35.5,36.7z"/>
<g class="st1">
	<path d="M15.7,26.7c-0.4,0-0.7-0.2-0.7-0.7s0.3-0.7,0.7-0.7h2.8v2.8c0,1.4-0.9,2.2-2.2,2.2h-2.4c-0.6,0-1.1-0.1-1.6-0.6
		c-0.6-0.5-0.7-1-0.7-1.7v-3.5c0-0.9,0.2-1.4,0.7-2l1.7-2.1c0.6-0.7,1.1-1,2-1h1.9c0.4,0,0.7,0.2,0.7,0.7s-0.3,0.7-0.7,0.7h-1.7
		c-0.8,0-0.7,0-1.2,0.6l-1.5,1.9C13,23.9,13,24.5,13,25.2v2.7c0,0.8,0.2,1,1,1h2.2c0.5,0,0.9-0.1,0.9-0.7v-1.4h-1.4V26.7z"/>
	<path d="M23.1,28.9h4.8c0.4,0,0.7,0.2,0.7,0.7s-0.3,0.7-0.7,0.7h-6.2v-4.6c0-1.1,0.5-1.6,1.6-1.6h3.9v-3.3h-4.8
		c-0.4,0-0.7-0.2-0.7-0.7s0.3-0.7,0.7-0.7H27c0.5,0,0.8,0.1,1.1,0.4c0.4,0.4,0.4,0.7,0.4,1.2v2.9c0,0.5,0,0.9-0.4,1.2
		c-0.4,0.3-0.7,0.4-1.1,0.4h-4v3.4H23.1z"/>
	<path d="M36.6,19.4c0.5,0,0.7,0.3,0.7,0.7v4c0.4,0,0.8,0.2,1,0.4c0.3,0.2,0.4,0.6,0.4,1v3.3c0,0.9-0.5,1.4-1.4,1.4h-4.1
		c-0.9,0-1.4-0.5-1.4-1.4v-3.3c0-0.4,0.1-0.8,0.4-1s0.6-0.4,1-0.4v-4c0-0.4,0.2-0.7,0.7-0.7H36.6z M37.3,28.9v-3.3h-4.1v3.3H37.3z
		 M35.9,24.2v-3.3h-1.3v3.3H35.9z"/>
</g>
</svg>
