<?xml version="1.0" encoding="utf-8"?>
<!-- Generator: Adobe Illustrator 22.1.0, SVG Export Plug-In . SVG Version: 6.00 Build 0)  -->
<svg version="1.1" id="Layer_1" xmlns="http://www.w3.org/2000/svg" xmlns:xlink="http://www.w3.org/1999/xlink" x="0px" y="0px"
	 viewBox="0 0 50 50" style="enable-background:new 0 0 50 50;" xml:space="preserve">
<path d="M42.8,49.2c-0.6,0-1-0.4-1-0.9V18.4c0-0.5,0.4-0.9,1-0.9s1,0.4,1,0.9v29.9C43.8,48.8,43.3,49.2,42.8,49.2z"/>
<path d="M32.5,47.9H3c-0.6,0-1-0.4-1-1V17.4c0-0.6,0.4-1,1-1h29.5c0.6,0,1,0.4,1,1v29.5C33.5,47.5,33.1,47.9,32.5,47.9z M4,45.9
	h27.5V18.4H4V45.9z"/>
<g>
	<path d="M9.8,32.8L6,26.4c-0.1-0.2-0.3-0.5-0.3-0.8c0-0.5,0.5-1,1-1c0.7,0,0.9,0.5,1.2,1l2.9,5l2.9-5c0.3-0.5,0.5-1,1.2-1
		c0.5,0,1,0.4,1,1c0,0.3-0.1,0.5-0.3,0.8l-3.7,6.4l3.7,6.4c0.1,0.2,0.3,0.5,0.3,0.8c0,0.5-0.5,1-1,1c-0.7,0-0.9-0.5-1.2-1l-2.9-5
		l-2.9,5c-0.3,0.5-0.5,1-1.2,1c-0.5,0-1-0.4-1-1c0-0.3,0.1-0.5,0.3-0.8L9.8,32.8z"/>
	<path d="M25.6,39.9c0,0.7-0.3,1-1.1,1s-1-0.4-1-1v-6.7l-4.1-5.4v-2.1c0-0.7,0.3-1,1-1s1,0.4,1,1v1.4l3.1,4l3.1-4v-1.4
		c0-0.7,0.3-1,1-1s1,0.4,1,1v2.1l-4.1,5.4V39.9z"/>
</g>
<g>
	<polygon points="46.7,21.3 38.8,21.3 42.8,17.5 	"/>
	<path d="M46.7,22.3h-7.9c-0.4,0-0.8-0.2-0.9-0.6c-0.2-0.4-0.1-0.8,0.2-1.1l3.9-3.8c0.4-0.4,1-0.4,1.4,0l3.9,3.8
		c0.3,0.3,0.4,0.7,0.2,1.1C47.5,22.1,47.1,22.3,46.7,22.3z M41.3,20.3h2.9l-1.5-1.4L41.3,20.3z"/>
</g>
<path d="M31.8,7.9H1.9c-0.5,0-0.9-0.4-0.9-1s0.4-1,0.9-1h29.9c0.5,0,0.9,0.4,0.9,1S32.3,7.9,31.8,7.9z"/>
<g>
	<polygon points="28.9,10.8 28.9,3 32.7,6.9 	"/>
	<path d="M28.9,11.8c-0.1,0-0.3,0-0.4-0.1c-0.4-0.2-0.6-0.5-0.6-0.9V3c0-0.4,0.2-0.8,0.6-0.9c0.4-0.2,0.8-0.1,1.1,0.2l3.8,3.9
		c0.4,0.4,0.4,1,0,1.4l-3.8,3.9C29.4,11.7,29.2,11.8,28.9,11.8z M29.9,5.4v2.9l1.4-1.5L29.9,5.4z"/>
</g>
</svg>
