<?xml version="1.0" encoding="utf-8"?>
<!-- Generator: Adobe Illustrator 22.1.0, SVG Export Plug-In . SVG Version: 6.00 Build 0)  -->
<svg version="1.1" id="Layer_1" xmlns="http://www.w3.org/2000/svg" xmlns:xlink="http://www.w3.org/1999/xlink" x="0px" y="0px"
	 viewBox="0 0 50 50" style="enable-background:new 0 0 50 50;" xml:space="preserve">
<path d="M21,37c-9.4,0-17-7.6-17-17c0-9.4,7.6-17,17-17s17,7.6,17,17C38,29.4,30.4,37,21,37z M21,5C12.7,5,6,11.7,6,20s6.7,15,15,15
	c8.3,0,15-6.7,15-15S29.3,5,21,5z"/>
<rect x="36.9" y="29.5" transform="matrix(0.7071 -0.7071 0.7071 0.7071 -16.0984 38.8644)" width="4" height="18.8"/>
<path d="M23.2,31.9h-4.5c-0.6,0-1-0.4-1-1V14.4c0-0.6,0.4-1,1-1h4.5c0.6,0,1,0.4,1,1v16.5C24.2,31.5,23.8,31.9,23.2,31.9z
	 M19.8,29.9h2.5V15.4h-2.5V29.9z"/>
<path d="M18.8,30.4c-0.2,0-0.4-0.1-0.5-0.3c-0.1-0.3,0-0.5,0.3-0.7l4.5-1.9c0.3-0.1,0.5,0,0.7,0.3c0.1,0.3,0,0.5-0.3,0.7L19,30.3
	C18.9,30.4,18.8,30.4,18.8,30.4z"/>
<path d="M18.8,28c-0.2,0-0.4-0.1-0.5-0.3c-0.1-0.3,0-0.5,0.3-0.7l4.5-1.9c0.3-0.1,0.5,0,0.7,0.3c0.1,0.3,0,0.5-0.3,0.7L19,28
	C18.9,28,18.8,28,18.8,28z"/>
<path d="M18.8,25.5c-0.2,0-0.4-0.1-0.5-0.3c-0.1-0.3,0-0.5,0.3-0.7l4.5-1.9c0.3-0.1,0.5,0,0.7,0.3c0.1,0.3,0,0.5-0.3,0.7L19,25.4
	C18.9,25.5,18.8,25.5,18.8,25.5z"/>
<path d="M18.8,23c-0.2,0-0.4-0.1-0.5-0.3c-0.1-0.3,0-0.5,0.3-0.7l4.5-1.9c0.3-0.1,0.5,0,0.7,0.3c0.1,0.3,0,0.5-0.3,0.7L19,22.9
	C18.9,23,18.8,23,18.8,23z"/>
<path d="M25.8,15.3h-9.6c-0.3,0-0.5-0.1-0.7-0.3l-2.4-2.4c-0.2-0.2-0.3-0.4-0.3-0.7V9.1c0-0.6,0.4-1,1-1h14.4c0.6,0,1,0.4,1,1v2.9
	c0,0.3-0.1,0.5-0.3,0.7L26.5,15C26.3,15.2,26,15.3,25.8,15.3z M16.6,13.3h8.7l1.8-1.8v-1.5H14.8v1.5L16.6,13.3z"/>
</svg>
