<?xml version="1.0" encoding="utf-8"?>
<!-- Generator: Adobe Illustrator 22.1.0, SVG Export Plug-In . SVG Version: 6.00 Build 0)  -->
<svg version="1.1" id="Layer_1" xmlns="http://www.w3.org/2000/svg" xmlns:xlink="http://www.w3.org/1999/xlink" x="0px" y="0px"
	 viewBox="0 0 50 50" style="enable-background:new 0 0 50 50;" xml:space="preserve">
<g>
	<rect x="15.2" y="6.5" width="4.2" height="2"/>
	<rect x="10.9" y="12.1" width="8.5" height="2"/>
	<rect x="15.2" y="17.8" width="4.2" height="2"/>
	<rect x="10.9" y="23.5" width="8.5" height="2"/>
	<rect x="15.2" y="29.1" width="4.2" height="2"/>
	<rect x="10.9" y="34.8" width="8.5" height="2"/>
	<rect x="15.2" y="40.4" width="4.2" height="2"/>
	<path d="M19.6,48.6H2.3c-0.6,0-1-0.4-1-1V1.5c0-0.6,0.4-1,1-1h17.3c0.6,0,1,0.4,1,1v46.1C20.6,48.2,20.2,48.6,19.6,48.6z M3.3,46.6
		h15.3V2.5H3.3V46.6z"/>
</g>
<path d="M39.7,43.8h-8.4c-0.6,0-1-0.4-1-1V12c0-0.6,0.4-1,1-1h8.4c0.6,0,1,0.4,1,1v30.8C40.7,43.4,40.3,43.8,39.7,43.8z M32.3,41.8
	h6.4V13h-6.4V41.8z"/>
<rect x="30.9" y="38" transform="matrix(0.9133 -0.4073 0.4073 0.9133 -12.791 17.8167)" width="9.1" height="2"/>
<rect x="30.7" y="33.6" transform="matrix(0.9093 -0.4161 0.4161 0.9093 -11.2002 17.8042)" width="9.1" height="2"/>
<rect x="30.7" y="29" transform="matrix(0.9093 -0.4161 0.4161 0.9093 -9.2862 17.3871)" width="9.1" height="2"/>
<rect x="30.7" y="24.3" transform="matrix(0.9133 -0.4073 0.4073 0.9133 -7.2687 16.556)" width="9.1" height="2"/>
<path d="M42.1,13h-3.4v-2h2.9l2.9-3.4V4.3H26v3.3l2.9,3.4h2.9v2h-3.4c-0.3,0-0.6-0.1-0.8-0.4l-3.4-4C24.1,8.5,24,8.2,24,8V3.3
	c0-0.6,0.4-1,1-1h20.5c0.6,0,1,0.4,1,1V8c0,0.2-0.1,0.5-0.2,0.6l-3.4,4C42.7,12.9,42.4,13,42.1,13z"/>
</svg>
