<?xml version="1.0" encoding="utf-8"?>
<!-- Generator: Adobe Illustrator 22.1.0, SVG Export Plug-In . SVG Version: 6.00 Build 0)  -->
<svg version="1.1" id="Layer_1" xmlns="http://www.w3.org/2000/svg" xmlns:xlink="http://www.w3.org/1999/xlink" x="0px" y="0px"
	 viewBox="0 0 50 50" style="enable-background:new 0 0 50 50;" xml:space="preserve">
<path d="M45,47H5c-0.6,0-1-0.4-1-1V18c0-0.6,0.4-1,1-1s1,0.4,1,1v27h38V18c0-0.6,0.4-1,1-1s1,0.4,1,1v28C46,46.6,45.6,47,45,47z"/>
<path d="M31,47c-0.6,0-1-0.4-1-1V28H20v18c0,0.6-0.4,1-1,1s-1-0.4-1-1V26h14v20C32,46.6,31.6,47,31,47z"/>
<path d="M48,21c-0.2,0-0.4-0.1-0.6-0.2l-8-6.2c-0.2-0.2-0.4-0.5-0.4-0.8c0-0.1,0-4.7,0-6.8h-2c0,4.2,0,4.3-0.6,4.5
	c-0.3,0.2-0.8,0.1-1.1-0.1L25,3.3L2.6,20.8c-0.4,0.3-1.1,0.3-1.4-0.2c-0.3-0.4-0.3-1.1,0.2-1.4l23-17.9c0.4-0.3,0.9-0.3,1.2,0
	L35,8.6C35,7.3,35,6,35,6c0-0.3,0.1-0.5,0.3-0.7S35.7,5,36,5h4c0.6,0,1,0.4,1,1c0,0,0,5.6,0,7.3l7.6,5.9c0.4,0.3,0.5,1,0.2,1.4
	C48.6,20.9,48.3,21,48,21z"/>
<circle cx="27" cy="36" r="1"/>
</svg>
