<?xml version="1.0" encoding="utf-8"?>
<!-- Generator: Adobe Illustrator 22.1.0, SVG Export Plug-In . SVG Version: 6.00 Build 0)  -->
<svg version="1.1" id="Layer_1" xmlns="http://www.w3.org/2000/svg" xmlns:xlink="http://www.w3.org/1999/xlink" x="0px" y="0px"
	 viewBox="0 0 50 50" style="enable-background:new 0 0 50 50;" xml:space="preserve">
<g>
	<rect x="15.2" y="6.5" width="4.2" height="2"/>
	<rect x="10.9" y="12.1" width="8.5" height="2"/>
	<rect x="15.2" y="17.8" width="4.2" height="2"/>
	<rect x="10.9" y="23.5" width="8.5" height="2"/>
	<rect x="15.2" y="29.1" width="4.2" height="2"/>
	<rect x="10.9" y="34.8" width="8.5" height="2"/>
	<rect x="15.2" y="40.4" width="4.2" height="2"/>
	<path d="M19.6,48.6H2.3c-0.6,0-1-0.4-1-1V1.5c0-0.6,0.4-1,1-1h17.3c0.6,0,1,0.4,1,1v46.1C20.6,48.2,20.2,48.6,19.6,48.6z M3.3,46.6
		h15.3V2.5H3.3V46.6z"/>
</g>
<path d="M47.7,47.5h-20c-0.6,0-1-0.4-1-1s0.4-1,1-1h20c0.6,0,1,0.4,1,1S48.3,47.5,47.7,47.5z"/>
<path d="M47.7,3.5h-20c-0.6,0-1-0.4-1-1s0.4-1,1-1h20c0.6,0,1,0.4,1,1S48.3,3.5,47.7,3.5z"/>
<path d="M37.7,43.5c-0.6,0-1-0.4-1-1v-36c0-0.6,0.4-1,1-1s1,0.4,1,1v36C38.7,43.1,38.3,43.5,37.7,43.5z"/>
<path d="M37.7,44.5c-0.3,0-0.6-0.1-0.8-0.4l-4-5.3c-0.3-0.4-0.2-1.1,0.2-1.4c0.4-0.3,1.1-0.2,1.4,0.2l3.2,4.2l3.2-4.2
	c0.3-0.4,1-0.5,1.4-0.2s0.5,1,0.2,1.4l-4,5.3C38.3,44.4,38,44.5,37.7,44.5z"/>
</svg>
