<?xml version="1.0" encoding="UTF-8" standalone="no"?>
<!-- Created with Inkscape (http://www.inkscape.org/) -->

<svg
   width="100"
   height="100"
   viewBox="0 0 100 100"
   version="1.1"
   id="svg5"
   inkscape:version="1.2.1 (9c6d41e410, 2022-07-14)"
   sodipodi:docname="nop.svg"
   xmlns:inkscape="http://www.inkscape.org/namespaces/inkscape"
   xmlns:sodipodi="http://sodipodi.sourceforge.net/DTD/sodipodi-0.dtd"
   xmlns="http://www.w3.org/2000/svg"
   xmlns:svg="http://www.w3.org/2000/svg">
  <sodipodi:namedview
     id="namedview7"
     pagecolor="#ffffff"
     bordercolor="#000000"
     borderopacity="0.25"
     inkscape:showpageshadow="2"
     inkscape:pageopacity="0"
     inkscape:pagecheckerboard="true"
     inkscape:deskcolor="#d1d1d1"
     inkscape:document-units="mm"
     showgrid="false"
     shape-rendering="auto"
     inkscape:zoom="2.84"
     inkscape:cx="80.105634"
     inkscape:cy="130.10563"
     inkscape:current-layer="text241">
    <sodipodi:guide
       position="0,100"
       orientation="0,100"
       id="guide132"
       inkscape:locked="false" />
    <sodipodi:guide
       position="100,100"
       orientation="100,0"
       id="guide134"
       inkscape:locked="false" />
    <sodipodi:guide
       position="100,0"
       orientation="0,-100"
       id="guide136"
       inkscape:locked="false" />
    <sodipodi:guide
       position="0,0"
       orientation="-100,0"
       id="guide138"
       inkscape:locked="false" />
  </sodipodi:namedview>
  <defs
     id="defs2" />
  <g
     inkscape:label="Ebene 1"
     inkscape:groupmode="layer"
     id="layer1">
    <text
       xml:space="preserve"
       style="font-size:155.235px;font-family:'Frankfurter Venetian TT';-inkscape-font-specification:'Frankfurter Venetian TT, Normal';fill:#ffffff"
       x="23.239437"
       y="28.697184"
       id="text237"><tspan
         sodipodi:role="line"
         id="tspan235"
         x="23.239437"
         y="28.697184" /></text>
    <g
       aria-label="keine
Aktion
"
       transform="scale(0.97205384,1.0287496)"
       id="text241"
       style="font-size:32.6665px;font-family:'Frankfurter Venetian TT';-inkscape-font-specification:'Frankfurter Venetian TT, Normal';fill:#0000ff;stroke-width:2.04165">
      <path
         d="m 27.962004,38.672794 h -3.955709 l -7.145797,-7.799765 -1.945953,1.850251 v 5.949514 H 11.915862 V 13.85391 h 2.998683 v 15.918539 l 8.661088,-8.916296 h 3.780255 l -8.278279,8.230427 z"
         style="font-family:Verdana;-inkscape-font-specification:Verdana;text-align:center;text-anchor:middle"
         id="path6570" />
      <path
         d="M 45.714844,30.075507 H 32.587632 q 0,1.642896 0.494464,2.87108 0.494463,1.212233 1.355787,1.993804 0.829423,0.765622 1.961904,1.148432 1.148432,0.382811 2.520169,0.382811 1.818351,0 3.652651,-0.71777 1.850251,-0.73372 2.631823,-1.43554 h 0.159504 v 3.26984 q -1.515292,0.638018 -3.094385,1.06868 -1.579094,0.430662 -3.317692,0.430662 -4.434222,0 -6.92249,-2.392566 -2.488269,-2.408517 -2.488269,-6.826788 0,-4.370421 2.376616,-6.938441 2.392565,-2.568021 6.284473,-2.568021 3.604799,0 5.550753,2.105458 1.961904,2.105458 1.961904,5.981415 z m -2.918931,-2.296863 q -0.01595,-2.360665 -1.196283,-3.65265 -1.164382,-1.291986 -3.556948,-1.291986 -2.408516,0 -3.844056,1.419589 -1.419589,1.419589 -1.610994,3.525047 z"
         style="font-family:Verdana;-inkscape-font-specification:Verdana;text-align:center;text-anchor:middle"
         id="path6572" />
      <path
         d="m 53.482705,17.873421 h -3.381493 v -3.110335 h 3.381493 z M 53.2913,38.672794 H 50.292617 V 20.856153 H 53.2913 Z"
         style="font-family:Verdana;-inkscape-font-specification:Verdana;text-align:center;text-anchor:middle"
         id="path6574" />
      <path
         d="M 74.122576,38.672794 H 71.123894 V 28.528315 q 0,-1.228184 -0.143554,-2.296863 -0.143554,-1.08463 -0.526365,-1.690747 -0.398761,-0.669919 -1.148431,-0.988927 -0.749671,-0.33496 -1.945954,-0.33496 -1.228184,0 -2.568021,0.606117 -1.339837,0.606117 -2.56802,1.547193 V 38.672794 H 59.224866 V 20.856153 h 2.998683 v 1.977855 q 1.403638,-1.164382 2.90298,-1.81835 1.499341,-0.653968 3.078434,-0.653968 2.88703,0 4.402322,1.738598 1.515291,1.738598 1.515291,5.008438 z"
         style="font-family:Verdana;-inkscape-font-specification:Verdana;text-align:center;text-anchor:middle"
         id="path6576" />
      <path
         d="M 94.810295,30.075507 H 81.683083 q 0,1.642896 0.494464,2.87108 0.494464,1.212233 1.355787,1.993804 0.829423,0.765622 1.961904,1.148432 1.148432,0.382811 2.52017,0.382811 1.81835,0 3.65265,-0.71777 1.850251,-0.73372 2.631823,-1.43554 h 0.159504 v 3.26984 q -1.515291,0.638018 -3.094385,1.06868 -1.579093,0.430662 -3.317691,0.430662 -4.434222,0 -6.922491,-2.392566 -2.488269,-2.408517 -2.488269,-6.826788 0,-4.370421 2.376616,-6.938441 2.392566,-2.568021 6.284473,-2.568021 3.604799,0 5.550753,2.105458 1.961904,2.105458 1.961904,5.981415 z m -2.91893,-2.296863 q -0.01595,-2.360665 -1.196283,-3.65265 -1.164382,-1.291986 -3.556948,-1.291986 -2.408517,0 -3.844056,1.419589 -1.419589,1.419589 -1.610995,3.525047 z"
         style="font-family:Verdana;-inkscape-font-specification:Verdana;text-align:center;text-anchor:middle"
         id="path6578" />
      <path
         d="M 22.538855,85.276922 H 19.173312 L 16.844548,78.65749 H 6.5724648 L 4.2437007,85.276922 H 1.0376623 L 9.6828005,61.526718 H 13.893717 Z M 15.871571,75.945915 11.708506,64.286144 7.5294912,75.945915 Z"
         style="font-family:Verdana;-inkscape-font-specification:Verdana;text-align:center;text-anchor:middle"
         id="path6580" />
      <path
         d="m 42.078144,85.276922 h -3.955709 l -7.145797,-7.799765 -1.945954,1.850251 v 5.949514 H 26.032002 V 60.458038 h 2.998682 v 15.918539 l 8.661089,-8.916296 h 3.780254 l -8.278278,8.230427 z"
         style="font-family:Verdana;-inkscape-font-specification:Verdana;text-align:center;text-anchor:middle"
         id="path6582" />
      <path
         d="m 54.487585,85.117418 q -0.845373,0.223306 -1.850251,0.36686 -0.988927,0.143554 -1.770499,0.143554 -2.727525,0 -4.147114,-1.467441 -1.419589,-1.46744 -1.419589,-4.705379 v -9.474561 h -2.025706 v -2.52017 h 2.025706 V 62.34019 h 2.998683 v 5.120091 h 6.18877 v 2.52017 h -6.18877 v 8.118773 q 0,1.403639 0.0638,2.201161 0.0638,0.781572 0.446613,1.46744 0.350909,0.638018 0.957026,0.941076 0.622067,0.287108 1.882152,0.287108 0.73372,0 1.531242,-0.207355 0.797522,-0.223307 1.148432,-0.366861 h 0.159504 z"
         style="font-family:Verdana;-inkscape-font-specification:Verdana;text-align:center;text-anchor:middle"
         id="path6584" />
      <path
         d="m 61.330325,64.477549 h -3.381494 v -3.110336 h 3.381494 z M 61.138919,85.276922 H 58.140237 V 67.460281 h 2.998682 z"
         style="font-family:Verdana;-inkscape-font-specification:Verdana;text-align:center;text-anchor:middle"
         id="path6586" />
      <path
         d="m 82.2573,76.376577 q 0,4.35447 -2.233062,6.874639 -2.233061,2.52017 -5.981415,2.52017 -3.780254,0 -6.013315,-2.52017 -2.217111,-2.520169 -2.217111,-6.874639 0,-4.35447 2.217111,-6.87464 2.233061,-2.536119 6.013315,-2.536119 3.748354,0 5.981415,2.536119 2.233062,2.52017 2.233062,6.87464 z m -3.094385,0 q 0,-3.461245 -1.355788,-5.136042 -1.355787,-1.690746 -3.764304,-1.690746 -2.440417,0 -3.796204,1.690746 -1.339837,1.674797 -1.339837,5.136042 0,3.349592 1.355787,5.08819 1.355788,1.722648 3.780254,1.722648 2.392566,0 3.748354,-1.706697 1.371738,-1.722648 1.371738,-5.104141 z"
         style="font-family:Verdana;-inkscape-font-specification:Verdana;text-align:center;text-anchor:middle"
         id="path6588" />
      <path
         d="M 101.79659,85.276922 H 98.797906 V 75.132443 q 0,-1.228184 -0.143554,-2.296864 -0.143554,-1.08463 -0.526364,-1.690746 -0.398761,-0.669919 -1.148432,-0.988927 -0.749671,-0.33496 -1.945954,-0.33496 -1.228183,0 -2.56802,0.606117 -1.339837,0.606117 -2.568021,1.547193 V 85.276922 H 86.898878 V 67.460281 h 2.998683 v 1.977855 q 1.403639,-1.164382 2.90298,-1.81835 1.499341,-0.653968 3.078435,-0.653968 2.887029,0 4.402324,1.738598 1.51529,1.738597 1.51529,5.008438 z"
         style="font-family:Verdana;-inkscape-font-specification:Verdana;text-align:center;text-anchor:middle"
         id="path6590" />
    </g>
  </g>
</svg>
