<?xml version="1.0" encoding="utf-8"?>
<!-- Svg Vector Icons : http://www.onlinewebfonts.com/icon -->
<!DOCTYPE svg PUBLIC "-//W3C//DTD SVG 1.1//EN" "http://www.w3.org/Graphics/SVG/1.1/DTD/svg11.dtd">
<svg version="1.1" xmlns="http://www.w3.org/2000/svg" xmlns:xlink="http://www.w3.org/1999/xlink" x="0px" y="0px" viewBox="0 0 1000 1000" enable-background="new 0 0 1000 1000" xml:space="preserve">
<metadata> Svg Vector Icons : http://www.onlinewebfonts.com/icon </metadata>
<g transform="scale(0.7)"><g><g><g><path d="M679.9,225.1c-43.2-34.6-107.8-52-198.2-52c-67,0-119.4,3.2-160.5,8.1c-21.5,2.5-37.8,20.9-37.8,42.6v530.3c0,40.1,32.5,72.7,72.7,72.7c40.1,0,72.7-32.5,72.7-72.7V594.8c13.5,2,30.8,2.9,50.1,2.9c86.5,0,160.7-21.2,210.7-68.3c38.6-36.6,59.7-90.5,59.7-154C749.3,311.8,721.4,257.9,679.9,225.1z M477.8,485.1c-21.1,0-36.5-0.9-49-3.8V289.6c10.6-2.9,30.8-5.7,60.7-5.7c73.1,0,114.5,35.6,114.5,95.3C603.9,445.6,555.8,485.1,477.8,485.1z"/><path d="M841,16.3H159c-82.2,0-149,66.8-149,149v669.4c0,82.2,66.9,149,149,149H841c82.2,0,149-66.8,149-149V165.3C990,83.1,923.1,16.3,841,16.3z M892,834.7c0,28.2-22.9,51.1-51.1,51.1H159c-28.1,0-51.1-22.9-51.1-51.1V165.3c0-28.2,22.9-51.1,51.1-51.1H841c28.2,0,51.1,22.9,51.1,51.1L892,834.7L892,834.7z"/></g></g></g><g></g><g></g><g></g><g></g><g></g><g></g><g></g><g></g><g></g><g></g><g></g><g></g><g></g><g></g><g></g></g>
</svg>