<?xml version="1.0" encoding="utf-8"?>
<!-- Generator: Adobe Illustrator 26.0.3, SVG Export Plug-In . SVG Version: 6.00 Build 0)  -->
<svg version="1.1" id="Ebene_1" xmlns="http://www.w3.org/2000/svg" xmlns:xlink="http://www.w3.org/1999/xlink" x="0px" y="0px"
	 viewBox="0 0 50 50" style="enable-background:new 0 0 50 50;" xml:space="preserve">
<g id="surface1">
	<path d="M12,0.8v34h10v-34H12z M28,0.8v34h10v-34H28z M14,2.8h6v30h-6V2.8z M30,2.8h6v30h-6V2.8z"/>
</g>
<g>
	<path d="M0.5,46.2c0-1.3,0.3-2.3,1-3s1.5-1.1,2.5-1.1c0.7,0,1.3,0.2,1.8,0.5c0.5,0.3,0.9,0.8,1.2,1.4c0.3,0.6,0.4,1.3,0.4,2.1
		c0,0.8-0.1,1.5-0.4,2.1c-0.3,0.6-0.7,1.1-1.2,1.4c-0.5,0.3-1.1,0.5-1.7,0.5c-0.7,0-1.3-0.2-1.8-0.5c-0.5-0.3-0.9-0.8-1.2-1.4
		C0.6,47.5,0.5,46.9,0.5,46.2z M1.5,46.2c0,0.9,0.2,1.7,0.7,2.2s1,0.8,1.7,0.8c0.7,0,1.3-0.3,1.8-0.8c0.5-0.5,0.7-1.3,0.7-2.3
		c0-0.6-0.1-1.2-0.3-1.6c-0.2-0.5-0.5-0.8-0.9-1.1C4.8,43.2,4.4,43,3.9,43c-0.7,0-1.2,0.2-1.7,0.7C1.7,44.3,1.5,45.1,1.5,46.2z"/>
	<path d="M8.5,50v-7.7h2.7c0.5,0,0.8,0,1.1,0.1c0.4,0.1,0.6,0.2,0.9,0.4c0.2,0.2,0.4,0.4,0.6,0.7c0.1,0.3,0.2,0.7,0.2,1
		c0,0.7-0.2,1.2-0.6,1.7c-0.4,0.5-1.1,0.7-2.1,0.7H9.5V50H8.5z M9.5,45.9h1.8c0.6,0,1-0.1,1.3-0.4c0.3-0.2,0.4-0.6,0.4-1
		c0-0.3-0.1-0.6-0.2-0.8s-0.3-0.4-0.6-0.5c-0.2,0-0.5-0.1-0.9-0.1H9.5V45.9z"/>
	<path d="M17,50v-6.8h-2.3v-0.9h5.7v0.9h-2.4V50H17z"/>
	<path d="M21.4,50v-7.7h0.9V50H21.4z"/>
	<path d="M23.7,46.2c0-1.3,0.3-2.3,1-3s1.5-1.1,2.5-1.1c0.7,0,1.3,0.2,1.8,0.5c0.5,0.3,0.9,0.8,1.2,1.4s0.4,1.3,0.4,2.1
		c0,0.8-0.1,1.5-0.4,2.1c-0.3,0.6-0.7,1.1-1.2,1.4c-0.5,0.3-1.1,0.5-1.7,0.5c-0.7,0-1.3-0.2-1.8-0.5c-0.5-0.3-0.9-0.8-1.2-1.4
		C23.9,47.5,23.7,46.9,23.7,46.2z M24.7,46.2c0,0.9,0.2,1.7,0.7,2.2s1,0.8,1.7,0.8c0.7,0,1.3-0.3,1.8-0.8s0.7-1.3,0.7-2.3
		c0-0.6-0.1-1.2-0.3-1.6s-0.5-0.8-0.9-1.1S27.6,43,27.1,43c-0.7,0-1.2,0.2-1.7,0.7C24.9,44.3,24.7,45.1,24.7,46.2z"/>
	<path d="M31.7,50v-7.7h1l3.7,6v-6h0.9V50h-1l-3.7-6v6H31.7z"/>
	<path d="M38.2,50l2.7-7.7h1l2.9,7.7h-1.1l-0.8-2.3h-3L39.2,50H38.2z M40.2,46.8h2.4l-0.7-2.1c-0.2-0.6-0.4-1.2-0.5-1.6
		c-0.1,0.5-0.2,1-0.4,1.5L40.2,46.8z"/>
	<path d="M45.6,50v-7.7h0.9v6.8H50V50H45.6z"/>
</g>
</svg>
