<?xml version="1.0" encoding="utf-8"?>
<!-- Generator: Adobe Illustrator 26.0.3, SVG Export Plug-In . SVG Version: 6.00 Build 0)  -->
<svg version="1.1" id="Layer_1" xmlns="http://www.w3.org/2000/svg" xmlns:xlink="http://www.w3.org/1999/xlink" x="0px" y="0px"
	 viewBox="0 0 50 50" style="enable-background:new 0 0 50 50;" xml:space="preserve">
<style type="text/css">
	.st0{fill:#E0D6CC;}
	.st1{fill:#CC092E;}
	.st2{fill:#FFFFFF;}
</style>
<path class="st0" d="M17.8,39.7h-4c-0.3,0-0.4-0.3-0.4-0.7V13.1c0-0.4,0.2-0.7,0.4-0.7h4c0.3,0,0.4,0.3,0.4,0.7v25.8
	C18.2,39.4,18.1,39.7,17.8,39.7z M14.2,38.2h3.2V13.9h-3.2V38.2z"/>
<path class="st0" d="M26,13.6H6c-0.3,0-0.5-0.1-0.7-0.3l-5-5C0.1,8.1,0,7.9,0,7.6v-6c0-0.6,0.4-1,1-1h30c0.6,0,1,0.4,1,1v6
	c0,0.3-0.1,0.5-0.3,0.7l-5,5C26.5,13.5,26.3,13.6,26,13.6z M6.4,11.6h19.2L30,7.2V2.6H2v4.6L6.4,11.6z"/>
<path class="st0" d="M15.8,49.4c-3.1,0-5.6-2.5-5.6-5.6s2.5-5.6,5.6-5.6s5.6,2.5,5.6,5.6S18.9,49.4,15.8,49.4z M15.8,47.8
	c2.2,0,4.1-1.8,4.1-4.1s-1.8-4.1-4.1-4.1s-4.1,1.8-4.1,4.1S13.6,47.8,15.8,47.8z"/>
<path class="st1" d="M49.6,20.8l-6.8-6.8c-0.2-0.2-0.5-0.4-0.9-0.4h-9.7c-0.3,0-0.6,0.1-0.9,0.4l-6.8,6.8c-0.2,0.2-0.4,0.5-0.4,0.9
	v9.7c0,0.3,0.1,0.6,0.4,0.9l6.8,6.8c0.2,0.2,0.5,0.4,0.9,0.4h9.7c0.3,0,0.6-0.1,0.9-0.4l6.8-6.8c0.2-0.2,0.4-0.5,0.4-0.9v-9.7
	C50,21.3,49.9,21,49.6,20.8z"/>
<path class="st2" d="M28,26c-0.9-0.3-1.2-0.6-1.2-1.1c0-0.4,0.3-0.8,1-0.8c0.5,0,0.9,0.2,1.2,0.3c0.1,0,0.1,0,0.2,0
	c0.1,0,0.1-0.1,0.1-0.1l0.2-0.7c0-0.1,0-0.2-0.1-0.3c-0.2-0.1-0.7-0.4-1.6-0.4c-1.4,0-2.4,0.8-2.4,2c0,1,0.6,1.6,1.9,2.1
	c0.9,0.4,1.1,0.7,1.1,1.1c0,0.6-0.4,0.9-1.2,0.9c-0.5,0-1-0.1-1.4-0.4c-0.1,0-0.1,0-0.2,0c-0.1,0-0.1,0.1-0.1,0.1l-0.2,0.7
	c0,0.1,0,0.2,0.1,0.3c0.4,0.3,1.2,0.5,1.8,0.5c1.8,0,2.5-1.1,2.5-2.1C29.8,27.1,29.3,26.5,28,26z"/>
<path class="st2" d="M35.9,23.1H31c-0.1,0-0.2,0.1-0.2,0.2v0.7c0,0.1,0.1,0.2,0.2,0.2h1.8V30c0,0.1,0.1,0.2,0.2,0.2h0.9
	c0.1,0,0.2-0.1,0.2-0.2v-5.7h1.8c0.1,0,0.2-0.1,0.2-0.2v-0.7C36.1,23.2,36,23.1,35.9,23.1z"/>
<path class="st2" d="M33,23.1H31c-0.1,0-0.2,0.1-0.2,0.2v0.7c0,0.1,0.1,0.2,0.2,0.2h1.8V30c0,0.1,0.1,0.2,0.2,0.2h0.9
	c0.1,0,0.2-0.1,0.2-0.2v-5.7h0.1L33,23.1z"/>
<path class="st2" d="M40,23c-1.9,0-3.3,1.5-3.3,3.7c0,2.1,1.3,3.6,3.2,3.6c1.6,0,3.3-1.1,3.3-3.7C43.2,24.5,41.9,23,40,23z M40,29.2
	c-1.3,0-1.9-1.3-1.9-2.5c0-1.3,0.6-2.5,1.9-2.5c1.3,0,1.9,1.3,1.9,2.5C41.8,27.9,41.3,29.2,40,29.2z"/>
<path class="st2" d="M36.7,26.8c0,2.1,1.3,3.5,3.2,3.5c0.1,0,0.2,0,0.3,0L36.7,26.8z"/>
<path class="st2" d="M48.7,23.7c-0.4-0.4-1.1-0.6-2-0.6c-0.6,0-1.1,0-1.7,0.1c-0.1,0-0.2,0.1-0.2,0.2V30c0,0.1,0.1,0.2,0.2,0.2h0.9
	c0.1,0,0.2-0.1,0.2-0.2v-2.4c0.2,0,0.3,0,0.5,0c0.9,0,1.7-0.3,2.2-0.8c0.4-0.4,0.6-0.9,0.6-1.6C49.4,24.6,49.1,24,48.7,23.7z
	 M46.6,26.5c-0.2,0-0.4,0-0.5,0v-2.2c0.1,0,0.3,0,0.6,0c0.6,0,1.3,0.2,1.3,1.1C48.1,26.3,47.2,26.5,46.6,26.5z"/>
<path class="st2" d="M22,43.7l6.1-3.5c0,1.1,0,2.3,0,3.4c0,1.2,0,2.4,0,3.6C26,46.1,24,44.9,22,43.7z"/>
<rect x="28" y="43" class="st2" width="16.7" height="2"/>
</svg>
