<?xml version="1.0" encoding="utf-8"?>
<!-- Generator: Adobe Illustrator 26.0.3, SVG Export Plug-In . SVG Version: 6.00 Build 0)  -->
<svg version="1.1" id="Layer_1" xmlns="http://www.w3.org/2000/svg" xmlns:xlink="http://www.w3.org/1999/xlink" x="0px" y="0px"
	 viewBox="0 0 50 50" style="enable-background:new 0 0 50 50;" xml:space="preserve">
<style type="text/css">
	.st0{fill:#E0D6CC;}
	.st1{fill:#FFFFFF;}
</style>
<path class="st0" d="M17.8,39.7h-4c-0.3,0-0.4-0.3-0.4-0.7V13.1c0-0.4,0.2-0.7,0.4-0.7h4c0.3,0,0.4,0.3,0.4,0.7v25.8
	C18.2,39.4,18.1,39.7,17.8,39.7z M14.2,38.2h3.2V13.9h-3.2V38.2z"/>
<path class="st0" d="M26,13.6H6c-0.3,0-0.5-0.1-0.7-0.3l-5-5C0.1,8.1,0,7.9,0,7.6v-6c0-0.6,0.4-1,1-1h30c0.6,0,1,0.4,1,1v6
	c0,0.3-0.1,0.5-0.3,0.7l-5,5C26.5,13.5,26.3,13.6,26,13.6z M6.4,11.6h19.2L30,7.2V2.6H2v4.6L6.4,11.6z"/>
<path class="st0" d="M15.8,49.4c-3.1,0-5.6-2.5-5.6-5.6s2.5-5.6,5.6-5.6s5.6,2.5,5.6,5.6S18.9,49.4,15.8,49.4z M15.8,47.8
	c2.2,0,4.1-1.8,4.1-4.1s-1.8-4.1-4.1-4.1s-4.1,1.8-4.1,4.1S13.6,47.8,15.8,47.8z"/>
<g>
	<path id="circle_1_" class="st1" d="M27.7,25.2c-1.9,0-3.5-1.6-3.5-3.5c0-1.9,1.6-3.5,3.5-3.5c1.9,0,3.5,1.6,3.5,3.5
		C31.2,23.6,29.6,25.2,27.7,25.2z"/>
	<path class="st1" d="M24.4,33.1c0-1.3,1.8-2.3,3.8-3c1.8-0.6,3.4-1.6,4.8-3c1.4-1.4,2.4-3,3-4.8c0.7-2,1.7-3.8,3-3.8
		c1.3,0,2.3,1.8,1.8,3.9c-1.5,6.2-6.4,11-12.5,12.6C26.2,35.4,24.4,34.3,24.4,33.1z"/>
	<path class="st1" d="M24.4,42c0-1.3,1.8-2.3,3.9-2.7c8.6-1.7,15.3-8.5,17-17c0.4-2.1,1.4-3.9,2.7-3.9c1.3,0,2.3,1.8,2,3.9
		C48.2,33.4,39.4,42.2,28.3,44C26.2,44.3,24.4,43.3,24.4,42z"/>
</g>
</svg>
