<?xml version="1.0" encoding="utf-8"?>
<!-- Generator: Adobe Illustrator 26.0.3, SVG Export Plug-In . SVG Version: 6.00 Build 0)  -->
<svg version="1.1" id="Layer_1" xmlns="http://www.w3.org/2000/svg" xmlns:xlink="http://www.w3.org/1999/xlink" x="0px" y="0px"
	 viewBox="0 0 50 50" style="enable-background:new 0 0 50 50;" xml:space="preserve">
<style type="text/css">
	.st0{fill:#E0D6CC;}
</style>
<path class="st0" d="M26.8,40.1h-4c-0.3,0-0.4-0.3-0.4-0.7V13.6c0-0.4,0.2-0.7,0.4-0.7h4c0.3,0,0.4,0.3,0.4,0.7v25.8
	C27.2,39.8,27.1,40.1,26.8,40.1z M23.2,38.6h3.2V14.4h-3.2V38.6z"/>
<path class="st0" d="M35,14.1H15c-0.3,0-0.5-0.1-0.7-0.3l-5-5C9.1,8.6,9,8.4,9,8.1v-6c0-0.6,0.4-1,1-1h30c0.6,0,1,0.4,1,1v6
	c0,0.3-0.1,0.5-0.3,0.7l-5,5C35.5,14,35.3,14.1,35,14.1z M15.4,12.1h19.2L39,7.7V3.1H11v4.6L15.4,12.1z"/>
<path class="st0" d="M24.8,49.9c-3.1,0-5.6-2.5-5.6-5.6s2.5-5.6,5.6-5.6s5.6,2.5,5.6,5.6S27.9,49.9,24.8,49.9z M24.8,48.3
	c2.2,0,4.1-1.8,4.1-4.1s-1.8-4.1-4.1-4.1s-4.1,1.8-4.1,4.1S22.6,48.3,24.8,48.3z"/>
</svg>
