<?xml version="1.0" encoding="utf-8"?>
<!-- Generator: Adobe Illustrator 26.0.3, SVG Export Plug-In . SVG Version: 6.00 Build 0)  -->
<svg version="1.1" id="Layer_1" xmlns="http://www.w3.org/2000/svg" xmlns:xlink="http://www.w3.org/1999/xlink" x="0px" y="0px"
	 viewBox="0 0 50 50" style="enable-background:new 0 0 50 50;" xml:space="preserve">
<style type="text/css">
	.st0{fill:#E0D6CC;}
	.st1{fill:#FFFFFF;}
</style>
<path class="st0" d="M21.1,48.3h-9.4c-0.6,0-1-0.4-1-1V12.8c0-0.6,0.4-1,1-1h9.4c0.6,0,1,0.4,1,1v34.5
	C22.1,47.9,21.7,48.3,21.1,48.3z M12.7,46.3h7.4V13.8h-7.4V46.3z"/>
<path class="st0" d="M11.7,46c-0.4,0-0.8-0.2-0.9-0.6c-0.2-0.5,0-1.1,0.5-1.3l9.4-4c0.5-0.2,1.1,0,1.3,0.5c0.2,0.5,0,1.1-0.5,1.3
	l-9.4,4C12,46,11.8,46,11.7,46z"/>
<path class="st0" d="M11.7,41c-0.4,0-0.8-0.2-0.9-0.6c-0.2-0.5,0-1.1,0.5-1.3l9.4-3.9c0.5-0.2,1.1,0,1.3,0.5c0.2,0.5,0,1.1-0.5,1.3
	l-9.4,3.9C12,41,11.8,41,11.7,41z"/>
<path class="st0" d="M11.7,35.8c-0.4,0-0.8-0.2-0.9-0.6c-0.2-0.5,0-1.1,0.5-1.3l9.4-4c0.5-0.2,1.1,0,1.3,0.5c0.2,0.5,0,1.1-0.5,1.3
	l-9.4,4C12,35.8,11.8,35.8,11.7,35.8z"/>
<path class="st0" d="M11.7,30.6c-0.4,0-0.8-0.2-0.9-0.6c-0.2-0.5,0-1.1,0.5-1.3l9.4-4c0.5-0.2,1.1,0,1.3,0.5c0.2,0.5,0,1.1-0.5,1.3
	l-9.4,4C12,30.6,11.8,30.6,11.7,30.6z"/>
<path class="st0" d="M26.4,13.5h-20c-0.3,0-0.5-0.1-0.7-0.3l-5-5C0.5,8,0.4,7.8,0.4,7.5v-6c0-0.6,0.4-1,1-1h30c0.6,0,1,0.4,1,1v6
	c0,0.3-0.1,0.5-0.3,0.7l-5,5C26.9,13.4,26.7,13.5,26.4,13.5z M6.8,11.5H26l4.4-4.4V2.5h-28v4.6L6.8,11.5z"/>
<g>
	<path class="st1" d="M47,42.8v5.1H27.7c0.2-1.9,0.8-3.8,1.9-5.5c1-1.7,3.1-4,6.2-6.9c2.5-2.3,4-3.9,4.6-4.7
		c0.8-1.1,1.1-2.3,1.1-3.4c0-1.2-0.3-2.2-1-2.8c-0.7-0.7-1.6-1-2.7-1c-1.1,0-2.1,0.3-2.7,1c-0.7,0.7-1.1,1.8-1.2,3.4l-5.5-0.5
		c0.3-3,1.3-5.2,3.1-6.5c1.7-1.3,3.9-2,6.4-2c2.8,0,5,0.8,6.7,2.3s2.4,3.4,2.4,5.7c0,1.3-0.2,2.5-0.7,3.7c-0.5,1.2-1.2,2.4-2.2,3.7
		c-0.7,0.8-1.9,2.1-3.6,3.7c-1.7,1.6-2.8,2.6-3.3,3.2c-0.5,0.5-0.8,1-1.1,1.5H47z"/>
</g>
</svg>
