<?xml version="1.0" encoding="utf-8"?>
<!-- Generator: Adobe Illustrator 26.0.3, SVG Export Plug-In . SVG Version: 6.00 Build 0)  -->
<svg version="1.1" id="Layer_1" xmlns="http://www.w3.org/2000/svg" xmlns:xlink="http://www.w3.org/1999/xlink" x="0px" y="0px"
	 viewBox="0 0 50 50" style="enable-background:new 0 0 50 50;" xml:space="preserve">
<style type="text/css">
	.st0{fill:#E0D6CC;}
	.st1{fill:#FFFFFF;}
</style>
<path class="st0" d="M21.1,48.3h-9.4c-0.6,0-1-0.4-1-1V12.8c0-0.6,0.4-1,1-1h9.4c0.6,0,1,0.4,1,1v34.5
	C22.1,47.9,21.7,48.3,21.1,48.3z M12.7,46.3h7.4V13.8h-7.4V46.3z"/>
<path class="st0" d="M11.7,46c-0.4,0-0.8-0.2-0.9-0.6c-0.2-0.5,0-1.1,0.5-1.3l9.4-4c0.5-0.2,1.1,0,1.3,0.5c0.2,0.5,0,1.1-0.5,1.3
	l-9.4,4C12,46,11.8,46,11.7,46z"/>
<path class="st0" d="M11.7,41c-0.4,0-0.8-0.2-0.9-0.6c-0.2-0.5,0-1.1,0.5-1.3l9.4-3.9c0.5-0.2,1.1,0,1.3,0.5c0.2,0.5,0,1.1-0.5,1.3
	l-9.4,3.9C12,41,11.8,41,11.7,41z"/>
<path class="st0" d="M11.7,35.8c-0.4,0-0.8-0.2-0.9-0.6c-0.2-0.5,0-1.1,0.5-1.3l9.4-4c0.5-0.2,1.1,0,1.3,0.5c0.2,0.5,0,1.1-0.5,1.3
	l-9.4,4C12,35.8,11.8,35.8,11.7,35.8z"/>
<path class="st0" d="M11.7,30.6c-0.4,0-0.8-0.2-0.9-0.6c-0.2-0.5,0-1.1,0.5-1.3l9.4-4c0.5-0.2,1.1,0,1.3,0.5c0.2,0.5,0,1.1-0.5,1.3
	l-9.4,4C12,30.6,11.8,30.6,11.7,30.6z"/>
<path class="st0" d="M26.4,13.5h-20c-0.3,0-0.5-0.1-0.7-0.3l-5-5C0.5,8,0.4,7.8,0.4,7.5v-6c0-0.6,0.4-1,1-1h30c0.6,0,1,0.4,1,1v6
	c0,0.3-0.1,0.5-0.3,0.7l-5,5C26.9,13.4,26.7,13.5,26.4,13.5z M6.8,11.5H26l4.4-4.4V2.5h-28v4.6L6.8,11.5z"/>
<g>
	<path class="st1" d="M33.1,32.5C31.7,31.9,30.7,31,30,30c-0.6-1-1-2.2-1-3.4c0-2.1,0.7-3.9,2.2-5.3c1.5-1.4,3.6-2.1,6.4-2.1
		c2.7,0,4.8,0.7,6.3,2.1c1.5,1.4,2.3,3.2,2.3,5.3c0,1.3-0.3,2.5-1,3.5s-1.7,1.8-2.9,2.4c1.6,0.6,2.8,1.6,3.6,2.8
		c0.8,1.2,1.2,2.6,1.2,4.2c0,2.6-0.8,4.8-2.5,6.4s-3.9,2.5-6.7,2.5c-2.6,0-4.8-0.7-6.5-2.1c-2-1.6-3.1-3.8-3.1-6.6
		c0-1.5,0.4-3,1.2-4.3C30.3,34.2,31.5,33.2,33.1,32.5z M33.8,39.2c0,1.5,0.4,2.7,1.2,3.5c0.8,0.8,1.7,1.3,2.9,1.3
		c1.1,0,2.1-0.4,2.8-1.2c0.7-0.8,1.1-2,1.1-3.5c0-1.3-0.4-2.4-1.1-3.2c-0.8-0.8-1.7-1.2-2.9-1.2c-1.3,0-2.3,0.5-3,1.4
		C34.1,37.1,33.8,38.1,33.8,39.2z M34.3,26.9c0,1.1,0.3,1.9,0.9,2.6c0.6,0.6,1.4,0.9,2.5,0.9c1,0,1.9-0.3,2.5-0.9
		c0.6-0.6,0.9-1.5,0.9-2.6c0-1-0.3-1.9-0.9-2.5c-0.6-0.6-1.4-0.9-2.5-0.9c-1.1,0-1.9,0.3-2.5,0.9S34.3,25.9,34.3,26.9z"/>
</g>
</svg>
