<?xml version="1.0" encoding="utf-8"?>
<!-- Generator: Adobe Illustrator 26.0.3, SVG Export Plug-In . SVG Version: 6.00 Build 0)  -->
<svg version="1.1" id="Layer_1" xmlns="http://www.w3.org/2000/svg" xmlns:xlink="http://www.w3.org/1999/xlink" x="0px" y="0px"
	 viewBox="0 0 50 50" style="enable-background:new 0 0 50 50;" xml:space="preserve">
<style type="text/css">
	.st0{fill:#E0D6CC;}
	.st1{fill:none;stroke:#000000;stroke-width:2;stroke-linecap:round;stroke-linejoin:round;stroke-miterlimit:10;}
	.st2{fill:#FFFFFF;}
</style>
<path class="st0" d="M21.1,48.3h-9.4c-0.6,0-1-0.4-1-1V12.8c0-0.6,0.4-1,1-1h9.4c0.6,0,1,0.4,1,1v34.5
	C22.1,47.9,21.7,48.3,21.1,48.3z M12.7,46.3h7.4V13.8h-7.4V46.3z"/>
<path class="st0" d="M11.7,46c-0.4,0-0.8-0.2-0.9-0.6c-0.2-0.5,0-1.1,0.5-1.3l9.4-4c0.5-0.2,1.1,0,1.3,0.5c0.2,0.5,0,1.1-0.5,1.3
	l-9.4,4C12,46,11.8,46,11.7,46z"/>
<path class="st0" d="M11.7,41c-0.4,0-0.8-0.2-0.9-0.6c-0.2-0.5,0-1.1,0.5-1.3l9.4-3.9c0.5-0.2,1.1,0,1.3,0.5c0.2,0.5,0,1.1-0.5,1.3
	l-9.4,3.9C12,41,11.8,41,11.7,41z"/>
<path class="st0" d="M11.7,35.8c-0.4,0-0.8-0.2-0.9-0.6c-0.2-0.5,0-1.1,0.5-1.3l9.4-4c0.5-0.2,1.1,0,1.3,0.5c0.2,0.5,0,1.1-0.5,1.3
	l-9.4,4C12,35.8,11.8,35.8,11.7,35.8z"/>
<path class="st0" d="M11.7,30.6c-0.4,0-0.8-0.2-0.9-0.6c-0.2-0.5,0-1.1,0.5-1.3l9.4-4c0.5-0.2,1.1,0,1.3,0.5c0.2,0.5,0,1.1-0.5,1.3
	l-9.4,4C12,30.6,11.8,30.6,11.7,30.6z"/>
<path class="st0" d="M26.4,13.5h-20c-0.3,0-0.5-0.1-0.7-0.3l-5-5C0.5,8,0.4,7.8,0.4,7.5v-6c0-0.6,0.4-1,1-1h30c0.6,0,1,0.4,1,1v6
	c0,0.3-0.1,0.5-0.3,0.7l-5,5C26.9,13.4,26.7,13.5,26.4,13.5z M6.8,11.5H26l4.4-4.4V2.5h-28v4.6L6.8,11.5z"/>
<path class="st1" d="M34.4,38.3"/>
<rect x="37.5" y="14.8" transform="matrix(0.9222 0.3867 -0.3867 0.9222 9.6958 -15.0735)" class="st2" width="9.6" height="3.5"/>
<rect x="36" y="19.2" transform="matrix(0.9222 0.3867 -0.3867 0.9222 10.9736 -14.2076)" class="st2" width="9.6" height="2"/>
<polygon class="st2" points="30.7,44.3 28.6,36.9 37.5,40.6 "/>
<rect x="29.1" y="35.6" transform="matrix(0.9222 0.3867 -0.3867 0.9222 16.7678 -10.2814)" class="st2" width="9.6" height="2"/>
<rect x="25.3" y="25" transform="matrix(0.3867 -0.9222 0.9222 0.3867 -2.9708 47.4169)" class="st2" width="17.7" height="2"/>
<rect x="32" y="29" transform="matrix(0.3867 -0.9222 0.9222 0.3867 -2.5584 56.0534)" class="st2" width="17.7" height="2"/>
<rect x="28.2" y="28" transform="matrix(0.3867 -0.9222 0.9222 0.3867 -3.9381 51.9884)" class="st2" width="17.7" height="2"/>
</svg>
