<?xml version="1.0" encoding="UTF-8" standalone="no"?>
<!-- Created with Inkscape (http://www.inkscape.org/) -->

<svg
   width="100"
   height="100"
   viewBox="0 0 100 100"
   version="1.1"
   id="svg5"
   inkscape:version="1.2.1 (9c6d41e410, 2022-07-14)"
   sodipodi:docname="temp.svg"
   xml:space="preserve"
   xmlns:inkscape="http://www.inkscape.org/namespaces/inkscape"
   xmlns:sodipodi="http://sodipodi.sourceforge.net/DTD/sodipodi-0.dtd"
   xmlns="http://www.w3.org/2000/svg"
   xmlns:svg="http://www.w3.org/2000/svg"><sodipodi:namedview
     id="namedview7"
     pagecolor="#ffffff"
     bordercolor="#000000"
     borderopacity="0.25"
     inkscape:showpageshadow="2"
     inkscape:pageopacity="0"
     inkscape:pagecheckerboard="true"
     inkscape:deskcolor="#d1d1d1"
     inkscape:document-units="mm"
     showgrid="false"
     shape-rendering="auto"
     inkscape:zoom="11.36"
     inkscape:cx="44.674296"
     inkscape:cy="47.227113"
     inkscape:current-layer="layer1"><sodipodi:guide
       position="0,100"
       orientation="0,100"
       id="guide132"
       inkscape:locked="false" /><sodipodi:guide
       position="100,100"
       orientation="100,0"
       id="guide134"
       inkscape:locked="false" /><sodipodi:guide
       position="100,0"
       orientation="0,-100"
       id="guide136"
       inkscape:locked="false" /><sodipodi:guide
       position="0,0"
       orientation="-100,0"
       id="guide138"
       inkscape:locked="false" /></sodipodi:namedview><defs
     id="defs2" /><g
     inkscape:label="Ebene 1"
     inkscape:groupmode="layer"
     id="layer1"><text
       xml:space="preserve"
       style="font-size:155.235px;font-family:'Frankfurter Venetian TT';-inkscape-font-specification:'Frankfurter Venetian TT, Normal';fill:#ffffff"
       x="23.239437"
       y="28.697184"
       id="text237"><tspan
         sodipodi:role="line"
         id="tspan235"
         x="23.239437"
         y="28.697184" /></text><g
       aria-label="Temperatur
Überwachung"
       id="text6861"
       style="font-size:14.9413px;font-family:Verdana;-inkscape-font-specification:Verdana;text-align:center;text-anchor:middle;fill:#00ff00;stroke-width:0.933832;fill-opacity:1"><path
         d="m 16.179638,1.4469873 h -3.881236 v 9.5790657 h -1.44452 V 1.4469873 H 6.9726454 V 0.16296931 h 9.2069926 z"
         id="path7076"
         style="fill:#00ff00;fill-opacity:1" /><path
         d="m 22.745639,7.0937483 h -6.004243 q 0,0.7514423 0.226162,1.3132002 0.226163,0.5544623 0.620123,0.9119446 0.379369,0.3501868 0.897353,0.5252801 0.52528,0.1750938 1.152698,0.1750938 0.831694,0 1.670683,-0.3283005 0.846284,-0.3355956 1.203766,-0.6566001 h 0.07296 v 1.4955896 q -0.693078,0.291822 -1.415338,0.488802 -0.72226,0.19698 -1.517476,0.19698 -2.028165,0 -3.166271,-1.094334 -1.138107,-1.1016287 -1.138107,-3.1224979 0,-1.9989826 1.087038,-3.1735673 1.094333,-1.1745846 2.874449,-1.1745846 1.648796,0 2.538854,0.9630135 0.897353,0.9630135 0.897353,2.7358338 z M 21.410552,6.0431881 q -0.0073,-1.0797424 -0.547166,-1.6706825 -0.532576,-0.5909401 -1.62691,-0.5909401 -1.101629,0 -1.758229,0.6493046 -0.649304,0.6493045 -0.736851,1.612318 z"
         id="path7078"
         style="fill:#00ff00;fill-opacity:1" /><path
         d="M 36.716631,11.026053 H 35.345067 V 6.3860793 q 0,-0.5252801 -0.05107,-1.0140824 Q 35.250224,4.8831946 35.097018,4.5913723 34.92922,4.2776634 34.615511,4.1171611 34.301802,3.9566589 33.710862,3.9566589 q -0.576349,0 -1.152698,0.2918222 -0.576349,0.2845267 -1.152698,0.7295557 0.02189,0.1677978 0.03648,0.3939601 0.01459,0.2188667 0.01459,0.4377334 V 11.026053 H 30.08497 V 6.3860793 q 0,-0.5398712 -0.05107,-1.021378 Q 29.990128,4.875899 29.836921,4.5840767 29.669123,4.2703678 29.355414,4.1171611 29.041705,3.9566589 28.450765,3.9566589 q -0.561758,0 -1.130811,0.2772311 -0.561758,0.2772312 -1.123516,0.707669 v 6.084494 H 24.824874 V 2.8769164 h 1.371564 V 3.7815655 Q 26.838447,3.2489898 27.473161,2.949872 28.11517,2.6507542 28.83743,2.6507542 q 0.831693,0 1.408042,0.3501867 0.583645,0.3501867 0.868172,0.9703091 0.831693,-0.7003735 1.517475,-1.0067869 0.685783,-0.3137089 1.466407,-0.3137089 1.342383,0 1.977096,0.8171024 0.642009,0.8098068 0.642009,2.2689181 z"
         id="path7080"
         style="fill:#00ff00;fill-opacity:1" /><path
         d="m 46.529155,6.8529949 q 0,0.9921957 -0.284527,1.8165937 -0.284526,0.8171023 -0.802511,1.3861554 -0.481507,0.539872 -1.138107,0.838989 -0.649304,0.291823 -1.37886,0.291823 -0.634713,0 -1.152698,-0.138616 -0.510689,-0.138615 -1.043265,-0.430438 v 3.414321 H 39.357623 V 2.8769164 h 1.371564 v 0.8535802 q 0.547167,-0.4596201 1.225654,-0.7660335 0.685782,-0.3137089 1.459111,-0.3137089 1.473703,0 2.290805,1.1162202 0.824398,1.1089246 0.824398,3.0860205 z m -1.415338,0.036478 q 0,-1.4737025 -0.503393,-2.2032582 -0.503394,-0.7295556 -1.546658,-0.7295556 -0.590941,0 -1.189176,0.2553444 -0.598236,0.2553445 -1.145403,0.6711913 v 4.6180875 q 0.583645,0.26264 0.999492,0.3574822 0.423142,0.094842 0.955718,0.094842 1.145402,0 1.787411,-0.773329 0.642009,-0.7733291 0.642009,-2.2908049 z"
         id="path7082"
         style="fill:#00ff00;fill-opacity:1" /><path
         d="m 55.488098,7.0937483 h -6.004243 q 0,0.7514423 0.226162,1.3132002 0.226162,0.5544623 0.620122,0.9119446 0.379369,0.3501868 0.897354,0.5252801 0.52528,0.1750938 1.152698,0.1750938 0.831693,0 1.670682,-0.3283005 0.846285,-0.3355956 1.203767,-0.6566001 h 0.07296 v 1.4955896 q -0.693078,0.291822 -1.415338,0.488802 -0.72226,0.19698 -1.517476,0.19698 -2.028165,0 -3.166272,-1.094334 -1.138107,-1.1016287 -1.138107,-3.1224979 0,-1.9989826 1.087038,-3.1735673 1.094334,-1.1745846 2.87445,-1.1745846 1.648796,0 2.538854,0.9630135 0.897353,0.9630135 0.897353,2.7358338 z M 54.153011,6.0431881 q -0.0073,-1.0797424 -0.547167,-1.6706825 -0.532575,-0.5909401 -1.626909,-0.5909401 -1.101629,0 -1.758229,0.6493046 -0.649305,0.6493045 -0.736851,1.612318 z"
         id="path7084"
         style="fill:#00ff00;fill-opacity:1" /><path
         d="m 62.652337,4.3725056 h -0.07296 Q 62.272968,4.29955 61.981146,4.2703678 61.696619,4.23389 61.302659,4.23389 q -0.634714,0 -1.225654,0.2845267 -0.59094,0.2772312 -1.138107,0.7222602 V 11.026053 H 57.567334 V 2.8769164 h 1.371564 v 1.2037669 q 0.817103,-0.6566001 1.437225,-0.9265357 0.627418,-0.2772312 1.276723,-0.2772312 0.357482,0 0.517984,0.021887 0.160502,0.014591 0.481507,0.06566 z"
         id="path7086"
         style="fill:#00ff00;fill-opacity:1" /><path
         d="m 70.013551,11.026053 h -1.364269 v -0.868171 q -0.182389,0.124025 -0.496098,0.350187 -0.306413,0.218867 -0.598235,0.350187 -0.342892,0.167797 -0.78792,0.277231 -0.445029,0.116729 -1.043265,0.116729 -1.101629,0 -1.867663,-0.729556 -0.766033,-0.7295557 -0.766033,-1.860367 0,-0.9265357 0.39396,-1.4955891 0.401256,-0.576349 1.138107,-0.9046491 0.744147,-0.3283 1.787411,-0.4450289 1.043265,-0.116729 2.239736,-0.1750934 V 5.4303613 q 0,-0.4669156 -0.167798,-0.773329 -0.160502,-0.3064134 -0.466915,-0.4815067 -0.291823,-0.1677978 -0.700374,-0.2261623 -0.408551,-0.058364 -0.85358,-0.058364 -0.539871,0 -1.203767,0.1459112 -0.663895,0.1386156 -1.371564,0.4085512 h -0.07296 V 3.0520098 q 0.401256,-0.1094333 1.159994,-0.2407534 0.758737,-0.13132 1.495589,-0.13132 0.860875,0 1.495589,0.1459111 0.642009,0.1386156 1.108924,0.4815068 0.459621,0.3355956 0.700374,0.8681713 0.240753,0.5325756 0.240753,1.3204957 z M 68.649282,9.0197753 V 6.7508571 q -0.627418,0.036478 -1.480998,0.1094334 -0.846284,0.072955 -1.342382,0.2115711 -0.59094,0.1677978 -0.955718,0.5252801 -0.364778,0.3501867 -0.364778,0.9703091 0,0.7003734 0.423142,1.0578557 0.423142,0.3501867 1.291314,0.3501867 0.72226,0 1.320496,-0.2772311 0.598235,-0.2845267 1.108924,-0.6784868 z"
         id="path7088"
         style="fill:#00ff00;fill-opacity:1" /><path
         d="m 76.885968,10.953098 q -0.386664,0.102138 -0.846284,0.167798 -0.452325,0.06566 -0.809807,0.06566 -1.24754,0 -1.896845,-0.671192 Q 72.683728,9.8441732 72.683728,8.3631752 V 4.0296144 h -0.926536 v -1.152698 h 0.926536 V 0.5350427 h 1.371564 v 2.3418737 h 2.830676 v 1.152698 h -2.830676 v 3.7134385 q 0,0.642009 0.02918,1.0067868 0.02918,0.3574823 0.204275,0.6711912 0.160502,0.2918223 0.437734,0.4304379 0.284526,0.13132 0.860875,0.13132 0.335596,0 0.700374,-0.094842 0.364778,-0.1021378 0.52528,-0.1677978 h 0.07296 z"
         id="path7090"
         style="fill:#00ff00;fill-opacity:1" /><path
         d="m 85.297743,11.026053 h -1.371564 v -0.904649 q -0.693078,0.547167 -1.327792,0.838989 -0.634713,0.291823 -1.400747,0.291823 -1.284018,0 -1.998982,-0.780625 -0.714965,-0.78792 -0.714965,-2.3053958 V 2.8769164 h 1.371565 v 4.6399742 q 0,0.6201223 0.05836,1.0651513 0.05836,0.4377334 0.248049,0.7514423 0.19698,0.3210045 0.510689,0.4669157 0.313709,0.1459111 0.911945,0.1459111 0.532575,0 1.159993,-0.2772311 0.634714,-0.2772312 1.181881,-0.7076691 V 2.8769164 h 1.371564 z"
         id="path7092"
         style="fill:#00ff00;fill-opacity:1" /><path
         d="m 93.082101,4.3725056 h -0.07296 Q 92.702732,4.29955 92.410909,4.2703678 92.126383,4.23389 91.732423,4.23389 q -0.634714,0 -1.225654,0.2845267 -0.59094,0.2772312 -1.138107,0.7222602 V 11.026053 H 87.997098 V 2.8769164 h 1.371564 v 1.2037669 q 0.817103,-0.6566001 1.437225,-0.9265357 0.627418,-0.2772312 1.276722,-0.2772312 0.357483,0 0.517985,0.021887 0.160502,0.014591 0.481507,0.06566 z"
         id="path7094"
         style="fill:#00ff00;fill-opacity:1" /><path
         d="m 8.6177935,25.339936 q 0,1.18188 -0.2626401,2.064643 -0.2553445,0.875466 -0.8462846,1.459111 -0.5617578,0.554462 -1.3132002,0.809807 -0.7514423,0.255344 -1.7509336,0.255344 -1.021378,0 -1.7801159,-0.269935 Q 1.9058812,29.38897 1.3878967,28.86369 0.79695656,28.265454 0.53431651,27.41917 0.27897202,26.572885 0.27897202,25.339936 V 18.839595 H 1.7234923 v 6.573297 q 0,0.882762 0.1167289,1.393451 0.1240245,0.510689 0.4085512,0.926536 0.3210045,0.474211 0.8681712,0.714964 0.5544623,0.240754 1.3277914,0.240754 0.7806246,0 1.3277913,-0.233458 0.5471668,-0.240754 0.8754668,-0.72226 0.2845268,-0.415847 0.4012557,-0.948423 0.1240244,-0.539871 0.1240244,-1.335087 V 18.839595 H 8.6177935 Z M 6.6844709,17.46803 H 5.2326551 v -1.422633 h 1.4518158 z m -3.013065,0 H 2.2195901 v -1.422633 h 1.4518158 z"
         id="path7096"
         style="fill:#00ff00;fill-opacity:1" /><path
         d="m 18.437613,25.566098 q 0,1.021378 -0.291822,1.838481 -0.284527,0.817102 -0.773329,1.371564 -0.517985,0.576349 -1.138107,0.868171 -0.620122,0.284527 -1.364269,0.284527 -0.693078,0 -1.211063,-0.167798 -0.517984,-0.160502 -1.021377,-0.437733 l -0.08755,0.379369 H 11.266081 V 18.350792 h 1.371565 v 4.05633 q 0.576349,-0.474211 1.225653,-0.773329 0.649305,-0.306413 1.459111,-0.306413 1.444521,0 2.276214,1.108924 0.838989,1.108925 0.838989,3.129794 z m -1.415338,0.03648 q 0,-1.459111 -0.481507,-2.210554 -0.481506,-0.758738 -1.553953,-0.758738 -0.598236,0 -1.211063,0.26264 -0.612826,0.255345 -1.138106,0.663896 v 4.669156 q 0.583644,0.26264 0.999491,0.364778 0.423142,0.102138 0.955718,0.102138 1.138107,0 1.780116,-0.744147 0.649304,-0.751442 0.649304,-2.349169 z"
         id="path7098"
         style="fill:#00ff00;fill-opacity:1" /><path
         d="m 27.396557,25.770374 h -6.004243 q 0,0.751442 0.226162,1.3132 0.226162,0.554462 0.620122,0.911945 0.379369,0.350186 0.897354,0.52528 0.52528,0.175093 1.152698,0.175093 0.831693,0 1.670682,-0.3283 0.846285,-0.335596 1.203767,-0.6566 h 0.07296 v 1.495589 q -0.693078,0.291822 -1.415338,0.488802 -0.72226,0.19698 -1.517476,0.19698 -2.028165,0 -3.166272,-1.094333 -1.138106,-1.101629 -1.138106,-3.122498 0,-1.998983 1.087037,-3.173568 1.094334,-1.174584 2.87445,-1.174584 1.648796,0 2.538854,0.963013 0.897353,0.963014 0.897353,2.735834 z m -1.335087,-1.05056 q -0.0073,-1.079743 -0.547167,-1.670683 -0.532575,-0.59094 -1.626909,-0.59094 -1.101629,0 -1.758229,0.649305 -0.649304,0.649304 -0.736851,1.612318 z"
         id="path7100"
         style="fill:#00ff00;fill-opacity:1" /><path
         d="m 34.560794,23.049131 h -0.07296 q -0.306414,-0.07296 -0.598236,-0.102138 -0.284527,-0.03648 -0.678487,-0.03648 -0.634713,0 -1.225653,0.284526 -0.590941,0.277231 -1.138107,0.72226 v 5.785377 h -1.371565 v -8.149137 h 1.371565 v 1.203767 q 0.817102,-0.6566 1.437224,-0.926536 0.627418,-0.277231 1.276723,-0.277231 0.357482,0 0.517984,0.02189 0.160503,0.01459 0.481507,0.06566 z"
         id="path7102"
         style="fill:#00ff00;fill-opacity:1" /><path
         d="m 46.102366,21.553542 -2.123007,8.149137 h -1.269427 l -2.093824,-6.281475 -2.079234,6.281475 h -1.262131 l -2.144894,-8.149137 h 1.429929 l 1.495589,6.310657 2.03546,-6.310657 h 1.130812 l 2.086529,6.310657 1.415338,-6.310657 z"
         id="path7104"
         style="fill:#00ff00;fill-opacity:1" /><path
         d="m 54.266092,29.702679 h -1.364269 v -0.868171 q -0.182389,0.124024 -0.496098,0.350186 -0.306413,0.218867 -0.598235,0.350187 -0.342892,0.167798 -0.787921,0.277231 -0.445029,0.116729 -1.043264,0.116729 -1.101629,0 -1.867663,-0.729556 -0.766033,-0.729555 -0.766033,-1.860366 0,-0.926536 0.39396,-1.49559 0.401256,-0.576349 1.138107,-0.904649 0.744147,-0.3283 1.787411,-0.445029 1.043265,-0.116729 2.239736,-0.175093 v -0.211571 q 0,-0.466916 -0.167798,-0.773329 -0.160502,-0.306414 -0.466915,-0.481507 -0.291823,-0.167798 -0.700374,-0.226162 -0.408551,-0.05837 -0.85358,-0.05837 -0.539871,0 -1.203767,0.145911 -0.663895,0.138616 -1.371564,0.408552 h -0.07296 v -1.393452 q 0.401256,-0.109433 1.159993,-0.240753 0.758738,-0.13132 1.49559,-0.13132 0.860875,0 1.495589,0.145911 0.642009,0.138616 1.108924,0.481507 0.45962,0.335595 0.700374,0.868171 0.240753,0.532576 0.240753,1.320496 z m -1.364269,-2.006278 v -2.268918 q -0.627418,0.03648 -1.480998,0.109433 -0.846285,0.07296 -1.342382,0.211571 -0.59094,0.167798 -0.955718,0.52528 -0.364778,0.350187 -0.364778,0.970309 0,0.700374 0.423142,1.057856 0.423142,0.350187 1.291314,0.350187 0.72226,0 1.320495,-0.277231 0.598236,-0.284527 1.108925,-0.678487 z"
         id="path7106"
         style="fill:#00ff00;fill-opacity:1" /><path
         d="m 62.933212,29.19199 q -0.685782,0.3283 -1.305904,0.510689 -0.612827,0.182389 -1.305905,0.182389 -0.882762,0 -1.619613,-0.255345 -0.736852,-0.26264 -1.262132,-0.78792 -0.532575,-0.52528 -0.824398,-1.327791 -0.291822,-0.802511 -0.291822,-1.874958 0,-1.998983 1.094334,-3.13709 1.101629,-1.138107 2.903631,-1.138107 0.700374,0 1.371565,0.19698 0.678487,0.196981 1.240244,0.481507 v 1.524772 h -0.07296 q -0.627418,-0.488803 -1.298609,-0.751443 -0.663896,-0.26264 -1.298609,-0.26264 -1.167289,0 -1.845776,0.78792 -0.671191,0.780625 -0.671191,2.298101 0,1.473702 0.6566,2.268918 0.663895,0.78792 1.860367,0.78792 0.415846,0 0.846284,-0.109433 0.430438,-0.109434 0.773329,-0.284527 0.299118,-0.153207 0.561758,-0.321004 0.26264,-0.175094 0.415847,-0.299118 h 0.07296 z"
         id="path7108"
         style="fill:#00ff00;fill-opacity:1" /><path
         d="m 71.505495,29.702679 h -1.371564 v -4.639974 q 0,-0.561758 -0.06566,-1.05056 -0.06566,-0.496098 -0.240754,-0.773329 -0.182389,-0.306414 -0.52528,-0.452325 -0.342891,-0.153207 -0.890058,-0.153207 -0.561758,0 -1.174584,0.277232 -0.612827,0.277231 -1.174585,0.707669 v 6.084494 H 64.691445 V 18.350792 h 1.371565 v 4.107399 q 0.642009,-0.532576 1.327791,-0.831693 0.685783,-0.299118 1.408043,-0.299118 1.320496,0 2.013574,0.795215 0.693077,0.795216 0.693077,2.290805 z"
         id="path7110"
         style="fill:#00ff00;fill-opacity:1" /><path
         d="M 80.902171,29.702679 H 79.530606 V 28.79803 q -0.693078,0.547167 -1.327791,0.838989 -0.634714,0.291822 -1.400747,0.291822 -1.284018,0 -1.998983,-0.780624 -0.714964,-0.787921 -0.714964,-2.305396 v -5.289279 h 1.371565 v 4.639974 q 0,0.620122 0.05836,1.065151 0.05836,0.437734 0.248049,0.751443 0.19698,0.321004 0.510689,0.466915 0.313709,0.145912 0.911945,0.145912 0.532575,0 1.159993,-0.277232 0.634713,-0.277231 1.18188,-0.707669 v -6.084494 h 1.371565 z"
         id="path7112"
         style="fill:#00ff00;fill-opacity:1" /><path
         d="m 90.415575,29.702679 h -1.371564 v -4.639974 q 0,-0.561758 -0.06566,-1.05056 -0.06566,-0.496098 -0.240754,-0.773329 -0.182389,-0.306414 -0.52528,-0.452325 -0.342891,-0.153207 -0.890058,-0.153207 -0.561758,0 -1.174584,0.277232 -0.612827,0.277231 -1.174585,0.707669 v 6.084494 h -1.371565 v -8.149137 h 1.371565 v 0.904649 q 0.642009,-0.532576 1.327791,-0.831693 0.685783,-0.299118 1.408043,-0.299118 1.320496,0 2.013573,0.795215 0.693078,0.795216 0.693078,2.290805 z"
         id="path7114"
         style="fill:#00ff00;fill-opacity:1" /><path
         d="m 99.66634,28.776143 q 0,2.071938 -0.941127,3.042247 -0.941127,0.970309 -2.896336,0.970309 -0.649305,0 -1.269427,-0.09484 -0.612827,-0.08755 -1.211062,-0.255344 v -1.400747 h 0.07295 q 0.335596,0.13132 1.065151,0.321004 0.729556,0.19698 1.459112,0.19698 0.700373,0 1.159993,-0.167797 0.45962,-0.167798 0.714965,-0.466916 0.255344,-0.284527 0.364778,-0.685782 0.109433,-0.401256 0.109433,-0.897354 v -0.744147 q -0.620122,0.496098 -1.189176,0.744147 -0.561758,0.240753 -1.437224,0.240753 -1.459112,0 -2.319987,-1.05056 -0.853581,-1.057855 -0.853581,-2.976587 0,-1.05056 0.291823,-1.809298 0.299118,-0.766033 0.809806,-1.320496 0.474212,-0.517984 1.152698,-0.802511 0.678487,-0.291822 1.349678,-0.291822 0.707669,0 1.181881,0.145911 0.481506,0.138615 1.014082,0.430438 l 0.08755,-0.350187 h 1.284018 z m -1.371565,-1.3132 v -4.442994 q -0.547167,-0.248049 -1.021378,-0.350187 -0.466916,-0.109433 -0.933831,-0.109433 -1.130811,0 -1.780116,0.758738 -0.649305,0.758738 -0.649305,2.203258 0,1.371565 0.481507,2.079234 0.481507,0.707669 1.597727,0.707669 0.598236,0 1.196471,-0.226163 0.605532,-0.233458 1.108925,-0.620122 z"
         id="path7116"
         style="fill:#00ff00;fill-opacity:1" /></g><g
       id="g7018"
       transform="matrix(0.14785624,0,0,0.14785624,-29.151129,67.215785)"><path
         style="fill:#ea2228"
         d="m 511.9742,182.24895 c -1.71453,-0.4407 -5.1847,-1.80207 -7.7115,-3.02527 l -4.59418,-2.22401 -4.97775,-4.67943 -4.97774,-4.67943 -3.13457,-6.70631 -3.13456,-6.70631 -0.53711,-7.29369 -0.5371,-7.29369 2.17782,-6.41708 2.17783,-6.41707 2.92836,-4.25622 c 3.57986,-5.20315 8.47536,-9.33301 14.7203,-12.41806 2.59464,-1.28178 5.04813,-2.81674 5.45221,-3.41103 l 0.73468,-1.08054 0.0153,-96.85 0.0153,-96.85 3.4,-3.4 3.4,-3.4 h 4.08422 4.08423 l 3.26577,2.91779 3.26578,2.9178 0.26448,98.07512 0.26449,98.07512 5.85516,2.95568 5.85516,2.95567 4.56198,4.56198 4.56198,4.56198 2.53215,5.23943 2.53215,5.23943 0.93222,6 0.93221,6 -0.92848,6 -0.92849,6 -2.56469,5.1189 -2.5647,5.11889 -4.55726,4.75592 -4.55726,4.75592 -6.55016,3.06519 -6.55016,3.06519 -8.04539,0.2647 -8.04539,0.26471 -3.11732,-0.80128 z"
         id="path7024" /></g><path
       style="fill:#2a2223;stroke-width:0.147856"
       d="M 45.234086,99.474596 C 43.86789,99.112785 42.989059,98.722341 41.779105,97.939629 l -0.99786,-0.645518 -0.765399,-0.765396 c -0.420971,-0.42097 -1.036342,-1.16438 -1.367491,-1.652017 l -0.602094,-0.886623 -0.419697,-0.993777 -0.419696,-0.993771 -0.257124,-1.168478 -0.257125,-1.168476 0.08583,-1.56686 0.08584,-1.566866 0.239931,-0.887138 c 0.13196,-0.487924 0.481489,-1.380338 0.776728,-1.98313 l 0.536796,-1.095993 0.582289,-0.752214 c 0.320257,-0.413712 0.855902,-1.037835 1.19032,-1.386931 l 0.608034,-0.634726 0.02821,-21.11577 0.02821,-21.11577 0.312844,-0.928663 0.312844,-0.928671 0.485925,-0.756048 0.485922,-0.756056 0.675214,-0.619137 0.675214,-0.619142 0.789585,-0.40114 c 0.434269,-0.220631 1.122259,-0.490148 1.528864,-0.598924 l 0.73928,-0.197773 1.130311,-0.0021 1.130313,-0.0021 0.968258,0.299062 0.968256,0.299071 0.932028,0.625038 0.932027,0.625035 0.745352,1.04443 0.745349,1.04443 0.2901,0.80377 0.2901,0.803777 0.07393,21.308089 0.07393,21.308098 0.961065,1.025807 0.961065,1.025814 0.558246,0.953454 0.558244,0.953445 0.374326,1.180321 0.374321,1.180319 0.147205,1.173967 0.147205,1.173966 -0.155474,1.278679 -0.155473,1.278686 -0.371801,1.093131 -0.371801,1.093138 -0.588104,0.989922 -0.588102,0.989929 -0.773192,0.84599 c -0.960107,1.050514 -1.965118,1.800339 -3.343192,2.494328 l -1.064162,0.535906 -1.218385,0.292098 -1.218385,0.292099 -1.55249,-0.0071 -1.552491,-0.0071 -1.034993,-0.274101 z m 5.104365,-2.935499 c 0.449093,-0.155975 1.180981,-0.467457 1.626418,-0.692182 l 0.809886,-0.408587 1.034993,-1.052546 1.034994,-1.052553 0.477885,-0.961063 0.477884,-0.961068 0.224434,-0.881236 0.224431,-0.881237 -0.0018,-1.114822 -0.0018,-1.114819 -0.214628,-0.806509 C 55.9131,86.168897 55.605035,85.370477 55.34656,84.838201 L 54.876631,83.870435 53.569775,82.582672 52.262921,81.294908 52.223082,59.59103 52.183265,37.887143 51.825022,37.159259 51.466779,36.431376 50.88601,35.85061 l -0.580767,-0.580766 -0.687407,-0.312718 -0.687409,-0.31271 -0.961065,0.0014 -0.961066,0.0014 -0.780596,0.346173 -0.780597,0.346173 -0.659539,0.733572 -0.65954,0.733563 -0.223245,0.751754 -0.223248,0.751754 v 21.546677 21.546677 l -0.970539,0.762717 -0.970539,0.762713 -0.70049,1.073048 -0.700489,1.073041 -0.329486,1.003678 -0.329487,1.003687 -0.0078,1.424923 -0.0078,1.424918 0.365991,1.14499 0.365989,1.144991 0.459154,0.715532 0.459156,0.715531 0.998433,0.96046 0.99843,0.960465 0.961066,0.470724 0.961065,0.470722 0.961064,0.217947 0.961066,0.217941 1.18285,-0.06456 1.182851,-0.06456 0.816532,-0.283591 z M 57.97734,76.899519 c -0.05585,-0.05584 -0.101554,-0.357942 -0.101554,-0.671323 v -0.569782 l 3.068015,0.03993 3.068023,0.04 v 0.591422 0.591424 l -2.966479,0.03993 -2.96647,0.03995 z M 57.875786,67.38446 v -0.591422 h 3.031054 3.031051 v 0.591422 0.591429 H 60.90684 57.875786 Z m 0.09857,-8.378513 c -0.05422,-0.05421 -0.09857,-0.353626 -0.09857,-0.665355 v -0.566783 h 3.006408 c 1.653527,0 3.036224,0.02978 3.07266,0.06622 0.03645,0.03644 0.04055,0.335841 0.0091,0.665353 l -0.05716,0.599102 h -2.916942 -2.916949 z m -0.09857,-9.512089 v -0.591422 h 3.031054 3.031051 v 0.591422 0.591423 H 60.90684 57.875786 Z m 0.02832,-8.905308 0.04562,-0.631418 2.864128,-0.04021 2.864126,-0.04021 0.209508,0.173878 0.2095,0.173868 -0.05215,0.457775 -0.05215,0.457768 -3.067066,0.04 -3.067067,0.04 z"
       id="path7020"
       sodipodi:nodetypes="cscsscccccccsscsscccccccccsscccccccccccccccccccccccccccssccccccccscccccccccsccccccccccccccccccccccccccccccccccccccccccccsscccccccscccccccccsscssccccscccccccccccccccccccc" /></g></svg>
