<?xml version="1.0" encoding="utf-8"?>
<!-- Svg Vector Icons : http://www.onlinewebfonts.com/icon -->
<!DOCTYPE svg PUBLIC "-//W3C//DTD SVG 1.1//EN" "http://www.w3.org/Graphics/SVG/1.1/DTD/svg11.dtd">
<svg version="1.1" xmlns="http://www.w3.org/2000/svg" xmlns:xlink="http://www.w3.org/1999/xlink" x="0px" y="0px" viewBox="0 0 1000 1000" enable-background="new 0 0 1000 1000" xml:space="preserve">
<metadata> Svg Vector Icons : http://www.onlinewebfonts.com/icon </metadata>
<g><path d="M835.4,193.7H161.6c-50.5,0-91.9-41.3-91.9-91.9l0,0c0-50.5,41.3-91.9,91.9-91.9h673.7c50.5,0,91.9,41.3,91.9,91.9l0,0C927.3,152.4,885.9,193.7,835.4,193.7z"/><path d="M406.6,898.1V346.9c0-50.5,41.3-91.9,91.9-91.9l0,0c50.5,0,91.9,41.3,91.9,91.9v551.3c0,50.5-41.3,91.9-91.9,91.9l0,0C448,990,406.6,948.7,406.6,898.1z"/><path d="M81.1,637.5l354.4-354.4c35.7-35.7,94.2-35.7,129.9,0l0,0c35.7,35.7,35.7,94.2,0,129.9L211,767.4c-35.7,35.7-94.2,35.7-129.9,0l0,0C45.3,731.7,45.3,673.2,81.1,637.5z"/><path d="M564.6,283.1l354.4,354.4c35.7,35.7,35.7,94.2,0,129.9l0,0c-35.7,35.7-94.2,35.7-129.9,0L434.6,413.1c-35.7-35.7-35.7-94.2,0-129.9l0,0C470.4,247.4,528.8,247.4,564.6,283.1z"/></g>
</svg>